<svg width="1137" height="1014" viewBox="0 0 1137 1014" fill="none" xmlns="http://www.w3.org/2000/svg">
<g filter="url(#filter0_d_1_8790)">
<path d="M982.28 334.19C936.25 142.91 764.05 0.779785 558.64 0.779785C382.48 0.779785 230.73 105.33 162.07 255.76C138.66 307.02 124.91 363.6 123.13 423.2H320.35C322.76 390.36 331.91 359.41 346.44 331.71C385.7 256.87 464.14 205.82 554.51 205.82C678.7 205.82 780.37 302.24 788.75 424.31C789.12 429.7 789.31 435.14 789.31 440.63C789.31 476.34 781.34 510.19 767.08 540.49H981.86C990.02 507.17 994.34 472.34 994.34 436.5C994.34 400.66 990.16 367.01 982.26 334.2L982.28 334.19Z" fill="#ED1E79"/>
<path d="M911.13 344.45C870.36 187.86 728 72.2798 558.65 72.2798C422.94 72.2798 304.56 146.51 241.91 256.58C213.76 306.04 196.85 362.74 194.68 423.19H320.36C322.77 390.35 331.92 359.4 346.45 331.7C385.71 256.86 464.15 205.81 554.52 205.81C678.71 205.81 780.38 302.23 788.76 424.3C789.13 429.69 789.32 435.13 789.32 440.62C789.32 476.33 781.35 510.18 767.09 540.48H907.79C917.59 507.53 922.85 472.63 922.85 436.49C922.85 404.69 918.77 373.84 911.12 344.44L911.13 344.45Z" fill="#FBB03B"/>
<path d="M853.47 417.05C843.46 262.94 715.29 141.04 558.65 141.04C457.36 141.04 367.96 192.02 314.73 269.73C284.56 313.77 266.01 366.39 263.5 423.19H320.37C322.78 390.35 331.93 359.4 346.46 331.7C385.72 256.86 464.16 205.81 554.53 205.81C678.72 205.81 780.39 302.23 788.77 424.3C789.14 429.69 789.33 435.13 789.33 440.62C789.33 476.33 781.36 510.18 767.1 540.48H835.29C847.46 508.14 854.11 473.1 854.11 436.49C854.11 429.96 853.9 423.47 853.48 417.05H853.47Z" fill="#7F47DD"/>
<path d="M1132.27 480.65V540.48H728.01C728.01 540.48 727.55 540.48 726.68 540.47C723.41 540.44 714.41 540.28 702.85 539.59C686.27 538.61 664.43 536.53 646.71 532.12C645.83 531.9 644.95 531.68 644.09 531.44C630.05 527.68 619.04 522.35 616.08 514.8C615.62 513.64 615.35 512.43 615.3 511.16C615.16 508.3 616.09 505.16 618.29 501.71C618.95 500.67 619.73 499.59 620.64 498.49C624.66 493.6 629.56 489.84 635.1 487.02C638.63 485.22 642.41 483.8 646.39 482.71C646.92 482.56 647.45 482.43 647.98 482.29C649.77 481.85 651.59 481.46 653.44 481.14C655.81 480.73 658.23 480.41 660.68 480.18C665.58 479.73 670.63 479.62 675.71 479.79C677.41 479.84 679.12 479.93 680.83 480.04C697.07 481.13 713.36 484.74 726.44 488.41C731.34 489.79 735.79 491.17 739.62 492.44C740.81 492.83 741.95 493.21 743.01 493.58C749.59 495.84 753.68 497.51 754.07 497.67C753.87 497.52 752.82 496.72 751.21 495.34C748.92 493.37 745.49 490.2 741.82 486.05C730.67 473.45 717.25 451.75 726.13 426.45C728.49 419.7 732.44 412.7 738.45 405.54C740.42 403.2 742.42 401.04 744.46 399.07C751.15 392.56 758.17 387.95 765.26 384.88C770.67 382.52 776.13 381.06 781.5 380.35C786.53 379.66 791.49 379.63 796.27 380.1C820.83 382.52 840.83 398.34 842.81 409.42C842.81 409.42 841.66 397.52 844.8 383.08C845.45 380.04 846.3 376.88 847.4 373.69C853.14 356.99 865.53 339.6 891.94 334.2C896.75 333.21 902.02 332.63 907.8 332.52C914.43 332.4 921.74 332.9 929.78 334.14C943.3 336.22 954.25 339.81 963.09 344.45C975.57 350.99 983.83 359.59 989.16 368.96C1002.38 392.19 997.55 420.07 994.34 432.49C993.32 436.43 992.47 438.81 992.4 438.99C992.49 438.88 993.16 438.06 994.36 436.76C998.24 432.56 1007.66 423.34 1020.75 417.05C1037.39 409.07 1059.95 405.83 1084.59 423.67C1084.88 423.88 1085.17 424.1 1085.45 424.3C1134.74 460.47 1110.68 483.39 1110.68 483.39C1110.68 483.39 1119.27 482.07 1132.27 480.65Z" fill="#BCF7F5"/>
<path d="M504.41 421.04C502.3 421.64 500.4 422.1 498.88 422.44H498.87C498.38 422.55 497.93 422.64 497.52 422.73C495.94 423.05 495.01 423.19 495.01 423.19H4.14014V278.43C32.3201 271.86 54.8101 292.62 54.8101 292.62C47.1301 248.74 77.0901 232.75 105.36 225.44C146.88 214.71 158.99 236.74 162.08 255.76C164.09 268.11 162.3 279.18 162.3 279.18C162.3 279.18 198.52 260.28 241.9 256.58C264.27 254.68 288.53 256.82 310.74 267.67C312.11 268.34 313.44 269.03 314.72 269.73C348.43 288.13 349.58 315.32 346.45 331.7C344.84 340.16 342.09 345.73 342.09 345.73C342.09 345.73 353.58 343.4 370.97 341.45C374.64 341.03 378.58 340.64 382.73 340.28C386.47 339.97 390.37 339.68 394.41 339.46H394.42C397.95 339.25 401.59 339.09 405.3 338.98H405.31C410.18 338.84 415.17 338.79 420.23 338.86C420.54 338.87 420.85 338.87 421.16 338.88C421.65 338.88 422.14 338.89 422.63 338.9C422.76 338.91 422.89 338.91 423.01 338.91C434.51 339.17 446.33 340.06 457.79 341.92C459.81 342.25 461.83 342.6 463.82 342.99C472.68 344.72 481.24 347.07 489.19 350.2C496.59 353.11 503.45 356.69 509.53 361.07H509.54C511.85 362.75 514.04 364.52 516.11 366.42C554.2 401.44 521.85 416.07 504.4 421.04H504.41Z" fill="#BCF7F5"/>
<path d="M1132.27 486.28V539.74H753.42C753.42 539.74 750.41 539.73 745.46 539.59C741.98 539.48 737.53 539.31 732.49 539.01C730.35 538.89 728.11 538.74 725.79 538.57C717.05 537.92 707.21 536.92 697.79 535.35C685.84 533.38 674.55 530.51 667.05 526.33C662.96 524.07 659.99 521.41 658.65 518.31C657.57 515.83 657.52 513.06 658.77 509.98C659.5 508.15 660.69 506.2 662.38 504.14C665.75 500.03 669.87 496.87 674.5 494.49C689.02 487.02 708.65 487.2 726.76 490C731.17 490.68 735.49 491.52 739.62 492.44C740.75 492.69 741.86 492.95 742.96 493.22C745.83 493.9 748.59 494.62 751.21 495.34C765.1 499.19 774.94 503.2 775.52 503.44C774.18 502.43 727.38 466.87 762.28 425.32C766.44 420.36 770.8 416.39 775.27 413.27C779.1 410.58 783.01 408.53 786.93 407.02C817.33 395.21 848.47 415.7 850.77 428.61C850.77 428.61 849.78 418.33 852.53 405.93C853.15 403.17 853.94 400.3 854.99 397.42C859.98 383.53 870.51 369.3 892.43 364.82C899.05 363.47 906.71 363 915.58 363.71C918.43 363.94 921.41 364.29 924.52 364.77C935.99 366.54 945.28 369.58 952.77 373.51C997.94 397.17 977.92 452.85 977.63 453.68C977.88 453.36 984.11 445.76 994.35 439.18C996.6 437.74 999.05 436.34 1001.67 435.08C1015.78 428.31 1034.91 425.56 1055.8 440.69C1056.04 440.87 1056.29 441.05 1056.53 441.22C1098.33 471.89 1077.92 491.33 1077.92 491.33C1077.92 491.33 1104.1 487.31 1132.27 486.28Z" fill="white"/>
<path d="M475.56 408.25C474.41 409.73 473.03 411.08 471.49 412.29H471.47L471.46 412.3C471.32 412.43 471.17 412.54 471.03 412.66H471.02C467.97 414.97 464.38 416.8 460.85 418.23H460.84C460.19 418.5 459.55 418.75 458.91 419C457.52 419.5 456.18 419.95 454.9 420.34C449.44 422.01 445.22 422.66 445.22 422.66H4.14014V303.28C35.0301 283.52 62.9101 309.26 62.9101 309.26C56.2401 271.15 82.2501 257.26 106.81 250.92C139.23 242.54 150.99 257.15 154.99 272.19C155.44 273.88 155.79 275.58 156.06 277.25C157.81 287.97 156.26 297.59 156.26 297.59C156.26 297.59 187.71 281.17 225.39 277.96C227.19 277.81 229.01 277.68 230.84 277.6C248.71 276.72 267.68 279.04 285.17 287.59C286.37 288.18 287.52 288.78 288.63 289.38C292.44 291.46 295.77 293.67 298.68 295.98C318.11 311.36 318.56 330.83 316.19 343.2C314.83 350.32 312.55 355.08 312.41 355.37C312.67 355.33 322.43 353.36 337.14 351.7H337.15C348.26 350.44 362.2 349.35 377.02 349.39C381 349.4 385.03 349.49 389.1 349.68C396.32 350.02 403.62 350.67 410.78 351.75C410.85 351.76 410.93 351.77 411.01 351.78C412.17 351.95 413.32 352.14 414.47 352.34C423.17 353.83 431.6 355.97 439.38 358.97C447.31 362 454.56 365.92 460.71 370.92C461.68 371.7 462.62 372.51 463.53 373.35C463.95 373.74 464.37 374.13 464.77 374.51C466.66 376.3 468.33 378.03 469.8 379.7C471.88 382.07 473.57 384.31 474.89 386.43C480.76 395.82 479.68 402.93 475.55 408.25H475.56Z" fill="white"/>
<path d="M791.99 460.48C795.83 470.05 785.99 479.15 778.59 479.15C771.19 479.15 765.19 470.79 765.19 460.48C765.19 450.17 775.91 422.32 802.72 426.1C810.05 427.13 784.83 442.63 792 460.48H791.99Z" fill="#BCF7F5"/>
<path d="M18.7901 340.76C22.6301 350.33 12.7801 359.43 5.38014 359.43C4.96014 359.43 4.55014 359.4 4.14014 359.35V314.43C10.1001 308.66 18.4301 304.82 29.5101 306.38C36.8401 307.41 11.6201 322.91 18.7901 340.76Z" fill="#BCF7F5"/>
<path d="M639.76 30.6899C639.76 30.6899 843.72 63.6299 933.34 255.42L910.36 264.31C910.36 264.31 836.83 91.2 637.17 53.67L639.76 30.6899Z" fill="white"/>
<path d="M639.15 53.7499C645.518 53.7499 650.68 48.5878 650.68 42.2199C650.68 35.8521 645.518 30.6899 639.15 30.6899C632.782 30.6899 627.62 35.8521 627.62 42.2199C627.62 48.5878 632.782 53.7499 639.15 53.7499Z" fill="white"/>
<path d="M602.85 46.56C609.218 46.56 614.38 41.3978 614.38 35.03C614.38 28.6622 609.218 23.5 602.85 23.5C596.482 23.5 591.32 28.6622 591.32 35.03C591.32 41.3978 596.482 46.56 602.85 46.56Z" fill="white"/>
<path d="M921.95 271.96C928.793 271.96 934.34 266.413 934.34 259.57C934.34 252.727 928.793 247.18 921.95 247.18C915.107 247.18 909.56 252.727 909.56 259.57C909.56 266.413 915.107 271.96 921.95 271.96Z" fill="white"/>
<path d="M278.32 790.42C278.32 782.84 279.42 776.44 281.61 771.22C283.8 766 286.93 761.72 290.99 758.38C294.87 755.19 299.42 752.72 304.64 750.98C309.86 749.24 315.86 748.37 322.64 748.37C327.32 748.37 331.47 748.57 335.09 748.97C338.71 749.37 341.95 749.89 344.8 750.55C347.65 751.2 350.18 751.95 352.41 752.78C354.64 753.61 356.71 754.48 358.64 755.39V780.24H342.27C340.42 777.63 338.36 775.71 336.1 774.48C333.83 773.25 331.5 772.63 329.11 772.63C327.08 772.63 325.11 773.03 323.21 773.83C321.31 774.63 319.61 775.79 318.13 777.31C316.64 778.83 315.45 780.69 314.54 782.88C313.63 785.07 313.18 787.58 313.18 790.41C313.18 796.68 314.6 801.27 317.45 804.17C320.3 807.07 324.35 808.52 329.61 808.52C330.92 808.52 332.23 808.45 333.55 808.3C334.87 808.16 336.21 807.94 337.55 807.65V801.07H327.11V786.17H360.94V825.87C358.08 827.07 355.04 828.2 351.83 829.27C348.62 830.34 345.41 831.26 342.2 832.04C338.99 832.82 335.85 833.36 332.76 833.67C329.68 833.98 326.83 834.13 324.22 834.13C319.94 834.13 315.84 833.82 311.93 833.21C308.01 832.59 304.36 831.49 300.97 829.89C297.58 828.29 294.49 826.29 291.7 823.88C288.91 821.47 286.52 818.62 284.55 815.34C282.57 812.06 281.04 808.34 279.95 804.19C278.86 800.04 278.32 795.44 278.32 790.4V790.42Z" fill="white"/>
<path d="M454.26 833.16H421.74C420.72 831.28 419.67 829.27 418.59 827.15C417.51 825.03 416.45 822.81 415.44 820.49C414.42 818.17 413.47 815.78 412.58 813.31C411.69 810.84 410.94 808.31 410.32 805.7H408.53V833.16H369.26V811.46L375.79 810.21V779.26L369.26 778.01V756.58H413.8C419.71 756.58 424.81 756.83 429.11 757.34C433.41 757.85 437.05 758.59 440.04 759.57C443.03 760.55 445.45 761.74 447.3 763.13C449.15 764.53 450.59 766.1 451.62 767.86C452.65 769.62 453.35 771.55 453.71 773.65C454.07 775.75 454.25 777.98 454.25 780.34C454.25 782.7 454.02 784.91 453.57 786.87C453.12 788.83 452.31 790.62 451.15 792.25C449.99 793.88 448.4 795.38 446.39 796.74C444.38 798.1 441.81 799.38 438.69 800.57C439.34 801.88 440.31 803.42 441.6 805.22C442.89 807.01 444.29 808.85 445.81 810.71C447.33 812.58 448.85 814.38 450.35 816.12C451.85 817.86 453.15 819.35 454.24 820.58V833.14L454.26 833.16ZM408.52 790.96C410.51 790.96 412.32 790.86 413.93 790.66C415.54 790.46 416.92 790.03 418.06 789.35C419.2 788.68 420.08 787.69 420.7 786.39C421.32 785.08 421.62 783.33 421.62 781.11C421.62 778.89 421.31 777.19 420.7 775.89C420.08 774.58 419.2 773.58 418.06 772.87C416.92 772.16 415.54 771.7 413.93 771.48C412.32 771.26 410.51 771.15 408.52 771.15V790.95V790.96Z" fill="white"/>
<path d="M547.31 779.269C547.27 780.359 547.26 781.419 547.26 782.449V793.839C547.26 801.089 546.26 807.299 544.27 812.469C542.28 817.639 539.57 821.869 536.17 825.169C532.76 828.469 528.76 830.789 524.18 832.129C519.59 833.469 514.73 834.139 509.58 834.139C503.63 834.139 498.08 833.469 492.91 832.129C487.74 830.789 483.25 828.459 479.42 825.139C475.59 821.819 472.59 817.589 470.39 812.439C468.2 807.289 467.1 801.089 467.1 793.839V779.259L460.57 778.009V756.579H503.05V778.009L496.52 779.259V788.369C496.52 789.259 496.52 790.079 496.55 790.839C496.57 791.599 496.58 792.259 496.58 792.819V793.939C496.58 794.769 496.6 795.739 496.63 796.849C496.67 797.959 496.81 799.099 497.07 800.279C497.32 801.459 497.71 802.619 498.24 803.759C498.77 804.899 499.51 805.929 500.47 806.829C501.43 807.739 502.65 808.469 504.11 809.029C505.58 809.589 507.4 809.869 509.58 809.869C511.76 809.869 513.6 809.589 515.1 809.029C516.6 808.469 517.84 807.719 518.8 806.799C519.76 805.879 520.51 804.829 521.06 803.669C521.6 802.509 521.99 801.339 522.23 800.159C522.47 798.979 522.61 797.839 522.67 796.729C522.72 795.619 522.75 794.649 522.75 793.819V792.599C522.75 792.039 522.75 791.389 522.72 790.639C522.7 789.899 522.69 789.099 522.69 788.249V779.249L516.16 777.999V756.569H553.9V777.999L547.32 779.249L547.31 779.269Z" fill="white"/>
<path d="M601.59 795.69V833.16H562.38V811.46L568.91 810.21V779.26L562.38 778.01V756.58H601.59L618.07 785.84L634.39 756.58H673.6V778.01L667.07 779.26V810.21L673.6 811.46V833.16H634.39V795.69L618.07 823.32L601.59 795.69Z" fill="white"/>
<path d="M684.15 756.59H728.69C734.49 756.59 739.52 756.84 743.78 757.35C748.04 757.86 751.67 758.58 754.66 759.53C757.65 760.47 760.1 761.63 762 763.01C763.9 764.39 765.39 765.94 766.46 767.66C767.53 769.38 768.25 771.27 768.64 773.32C769.02 775.37 769.21 777.55 769.21 779.87C769.21 782.19 768.98 784.51 768.53 786.61C768.08 788.71 767.23 790.64 766 792.4C764.77 794.16 763.07 795.74 760.92 797.13C758.76 798.53 755.99 799.7 752.6 800.67C749.21 801.63 745.12 802.37 740.34 802.87C735.55 803.38 729.92 803.63 723.43 803.63V810.21L729.96 811.46V833.16H684.17V811.46L690.7 810.21V779.26L684.17 778.01V756.58L684.15 756.59ZM723.42 789.87C725.41 789.87 727.22 789.76 728.83 789.54C730.44 789.32 731.82 788.85 732.96 788.13C734.1 787.4 734.98 786.35 735.6 784.98C736.22 783.6 736.52 781.74 736.52 779.38C736.52 777.2 736.21 775.48 735.6 774.21C734.98 772.94 734.1 771.96 732.96 771.27C731.82 770.58 730.44 770.14 728.83 769.94C727.22 769.74 725.41 769.64 723.42 769.64V789.87Z" fill="white"/>
<path d="M795.86 833.16V811.57L802.39 809.94L779.93 779.21L771.66 778.01V756.58H815.33V778.01L810.22 779.21L820.61 794.93L830.94 779.21L825.83 778.01V756.58H869.45V778.01L861.24 779.21L838.78 809.94L845.36 811.57V833.16H795.87H795.86Z" fill="white"/>
<path d="M321.85 900.159V924.599L331.18 926.299V957.139H284.76V926.369L294.01 924.599V880.719L284.76 878.949V848.569H340.43L377.52 907.099V880.879L368.27 878.949V848.569H414.61V878.949L405.36 880.719V924.599L414.61 926.369V957.139H358.94L321.85 900.159Z" fill="#ED1E79"/>
<path d="M429.57 848.569H494.5V878.949L485.25 880.719V924.599L494.5 926.369V957.139H429.57V926.369L438.82 924.599V880.719L429.57 878.949V848.569Z" fill="#ED1E79"/>
<path d="M552.1 901.39C552.1 909.56 554.18 915.51 558.35 919.24C562.51 922.97 568.42 924.83 576.09 924.83C580.61 924.83 585.92 924.27 592.01 923.13C598.1 922 604.98 920.28 612.64 917.96V951.5C597.22 956.18 582.39 958.52 568.15 958.52C559.31 958.52 551.08 957.48 543.47 955.4C535.86 953.32 529.26 949.89 523.65 945.11C518.05 940.33 513.64 934.3 510.43 927.03C507.22 919.76 505.61 911.21 505.61 901.39C505.61 891.57 507.09 883.31 510.04 876.29C513 869.27 517.18 863.49 522.61 858.94C528.03 854.39 534.55 851.04 542.16 848.88C549.77 846.72 558.25 845.64 567.61 845.64C573.32 845.64 578.47 845.92 583.07 846.49C587.67 847.06 591.81 847.78 595.48 848.65C599.15 849.52 602.39 850.49 605.2 851.54C608 852.59 610.48 853.61 612.64 854.59V888.13H590.82C588.35 884.74 585.63 882.23 582.65 880.61C579.67 878.99 576.56 878.18 573.32 878.18C570.65 878.18 568.04 878.69 565.49 879.72C562.95 880.75 560.68 882.25 558.7 884.23C556.72 886.21 555.13 888.64 553.92 891.52C552.71 894.4 552.11 897.69 552.11 901.39H552.1Z" fill="#ED1E79"/>
<path d="M688.2 958.529C679.15 958.529 670.68 957.569 662.79 955.639C654.9 953.709 648.04 950.399 642.2 945.689C636.37 940.989 631.76 934.979 628.4 927.679C625.03 920.379 623.35 911.619 623.35 901.389C623.35 891.159 625.03 882.819 628.4 875.749C631.77 868.679 636.38 862.919 642.24 858.479C648.1 854.029 654.96 850.779 662.83 848.729C670.7 846.669 679.15 845.649 688.2 845.649C697.25 845.649 705.64 846.679 713.53 848.729C721.42 850.789 728.31 854.039 734.2 858.479C740.09 862.929 744.73 868.689 748.12 875.749C751.51 882.819 753.21 891.359 753.21 901.389C753.21 908.179 752.44 914.329 750.9 919.859C749.36 925.389 747.19 930.299 744.38 934.589C741.58 938.879 738.21 942.579 734.28 945.689C730.35 948.799 725.96 951.369 721.13 953.399C716.3 955.429 711.11 956.789 705.55 957.489C700 958.179 694.21 958.529 688.2 958.529ZM688.2 878.489C685.17 878.489 682.61 878.879 680.53 879.649C678.45 880.419 676.73 881.419 675.36 882.659C674 883.889 672.93 885.309 672.16 886.899C671.39 888.489 670.84 890.129 670.5 891.799C670.17 893.469 669.96 895.119 669.88 896.739C669.8 898.359 669.76 899.789 669.76 901.019C669.76 902.249 669.79 903.599 669.84 905.219C669.89 906.839 670.07 908.539 670.38 910.309C670.69 912.079 671.2 913.849 671.92 915.589C672.64 917.339 673.68 918.909 675.04 920.289C676.4 921.679 678.15 922.799 680.28 923.639C682.41 924.489 685.05 924.909 688.18 924.909C691.31 924.909 693.87 924.499 696.01 923.679C698.14 922.859 699.89 921.769 701.25 920.399C702.61 919.039 703.68 917.509 704.45 915.809C705.22 914.109 705.77 912.409 706.11 910.679C706.44 908.959 706.65 907.279 706.73 905.629C706.81 903.979 706.85 902.569 706.85 901.389C706.85 900.209 706.81 898.729 706.73 897.109C706.65 895.489 706.45 893.829 706.11 892.139C705.78 890.439 705.22 888.789 704.45 887.169C703.68 885.549 702.61 884.099 701.25 882.809C699.89 881.529 698.14 880.479 696.01 879.689C693.88 878.889 691.27 878.489 688.18 878.489H688.2Z" fill="#ED1E79"/>
<path d="M884.67 957.14H838.56C837.12 954.47 835.63 951.63 834.09 948.62C832.55 945.61 831.06 942.46 829.62 939.17C828.18 935.88 826.83 932.49 825.57 928.99C824.31 925.49 823.24 921.899 822.37 918.189H819.83V957.13H764.16V926.359L773.41 924.589V880.709L764.16 878.939V848.56H827.31C835.69 848.56 842.93 848.92 849.02 849.64C855.11 850.36 860.28 851.41 864.52 852.8C868.76 854.19 872.19 855.869 874.81 857.849C877.43 859.829 879.48 862.07 880.94 864.56C882.41 867.05 883.39 869.79 883.91 872.77C884.42 875.75 884.68 878.91 884.68 882.25C884.68 885.59 884.36 888.73 883.72 891.5C883.08 894.28 881.93 896.82 880.29 899.13C878.64 901.44 876.4 903.56 873.54 905.49C870.69 907.42 867.05 909.23 862.63 910.93C863.56 912.78 864.93 914.98 866.76 917.52C868.58 920.06 870.58 922.66 872.74 925.31C874.9 927.96 877.04 930.519 879.18 932.979C881.31 935.449 883.15 937.56 884.69 939.3V957.109L884.67 957.14ZM819.82 897.3C822.65 897.3 825.2 897.16 827.49 896.88C829.78 896.6 831.73 895.98 833.35 895.03C834.97 894.08 836.22 892.679 837.09 890.829C837.96 888.979 838.4 886.489 838.4 883.349C838.4 880.209 837.96 877.799 837.09 875.949C836.22 874.099 834.97 872.67 833.35 871.67C831.73 870.67 829.78 870.009 827.49 869.699C825.2 869.389 822.64 869.24 819.82 869.24V897.31V897.3Z" fill="#ED1E79"/>
<path d="M934.8 900.159V924.599L944.13 926.299V957.139H897.71V926.369L906.96 924.599V880.719L897.71 878.949V848.569H953.38L990.47 907.099V880.879L981.22 878.949V848.569H1027.56V878.949L1018.31 880.719V924.599L1027.56 926.369V957.139H971.89L934.8 900.159Z" fill="#ED1E79"/>
<path d="M266.78 819.63L267.57 813.8L257.24 793.93L232.62 803.07C232.62 803.07 232.57 803.02 232.55 802.99L209.54 805.86L208.75 811.69C224.86 826.87 234.96 849.71 234.6 875.13C233.96 920.12 200.77 956.13 160.49 955.55C120.2 954.97 88.0601 918.03 88.7101 873.04C89.0801 847.42 99.9901 824.72 116.76 810.01L117.55 804.18L104.91 805.16L70.5601 790.95L68.7801 795.26L60.8701 810.45L60.0801 816.28L75.5301 822.67C64.2101 841 52.8401 860.8 52.5001 884.7C51.4901 955.25 99.1301 1004.18 159.78 1005.05C217.4 1005.87 264.86 954.38 265.78 890.02C266.12 866.47 260.17 844.46 249.67 825.97L266.78 819.62V819.63ZM79.4801 945.44C79.5001 943.8 79.8301 942.24 80.4101 940.8C82.3401 935.93 87.1301 932.53 92.6801 932.61C95.1401 932.65 97.4301 933.36 99.3801 934.57C102.13 936.29 104.19 939 105.05 942.2C105.37 943.35 105.53 944.57 105.51 945.82C105.41 953.01 99.4901 958.75 92.3001 958.65C92.1601 958.65 92.0101 958.65 91.8701 958.63C84.8801 958.3 79.3701 952.49 79.4701 945.45L79.4801 945.44ZM159.89 997C155.6 996.94 151.75 995.11 149.03 992.22C146.4 989.43 144.81 985.66 144.87 981.53C144.94 976.34 147.6 971.8 151.61 969.09C154.1 967.41 157.11 966.45 160.34 966.5C163.91 966.55 167.18 967.83 169.75 969.93C173.24 972.77 175.44 977.12 175.37 981.97C175.31 986.04 173.67 989.71 171.02 992.41C168.21 995.3 164.26 997.07 159.9 997.01L159.89 997ZM230.24 958.44C223.05 958.34 217.3 952.42 217.41 945.23C217.51 938.04 223.43 932.29 230.62 932.4C237.81 932.5 243.56 938.42 243.45 945.61C243.35 952.8 237.43 958.55 230.24 958.44Z" fill="#ED1E79"/>
<path d="M92.6802 932.599C87.1302 932.519 82.3402 935.93 80.4102 940.79C67.5702 916.15 57.7002 875.67 85.1702 824.14L61.9602 811.709L68.7702 795.25L104.37 811.15C104.37 811.15 61.6402 861.83 92.8102 923.29C94.8902 927.38 97.0802 931.13 99.3702 934.55C97.4202 933.34 95.1302 932.619 92.6702 932.589L92.6802 932.599Z" fill="#ED1E79"/>
<path d="M151.59 969.09C147.59 971.79 144.93 976.34 144.85 981.53C144.79 985.66 146.38 989.44 149.01 992.22C116.22 988.11 99.9101 967.62 99.9101 967.62C99.9101 967.62 96.4901 964.52 91.8601 958.63C92.0001 958.64 92.1501 958.65 92.2901 958.65C99.4801 958.75 105.39 953.01 105.5 945.82C105.52 944.57 105.36 943.35 105.04 942.2C119.66 959.85 137 966.78 151.57 969.1L151.59 969.09Z" fill="#ED1E79"/>
<path d="M171.01 992.4C173.65 989.7 175.3 986.03 175.36 981.96C175.43 977.11 173.23 972.76 169.74 969.92C177.56 969.43 182.54 968.01 182.54 968.01C182.54 968.01 189.36 966.59 193.18 970.28C199.55 976.43 200.71 989.37 171.01 992.4Z" fill="#ED1E79"/>
<path d="M209.87 975C215.625 975 220.29 970.334 220.29 964.58C220.29 958.825 215.625 954.16 209.87 954.16C204.115 954.16 199.45 958.825 199.45 964.58C199.45 970.334 204.115 975 209.87 975Z" fill="#ED1E79"/>
<path d="M267.57 813.8L258.03 788.1L233.41 797.24C233.41 797.24 233.36 797.19 233.34 797.16L209.54 805.86C225.65 821.04 235.75 843.88 235.39 869.3C234.75 914.29 201.56 950.3 161.28 949.72C120.99 949.14 88.85 912.2 89.5 867.21C89.87 841.59 100.78 818.89 117.55 804.18L105.7 799.33L71.35 785.12L69.57 789.43L62.76 805.89L60.87 810.45L76.32 816.84C65 835.17 58.24 857.3 57.9 881.21C56.98 945.57 102.95 998.4 160.57 999.23C218.19 1000.05 265.65 948.56 266.57 884.2C266.91 860.65 260.96 838.64 250.46 820.15L267.57 813.8ZM80.27 939.61C80.29 937.97 80.62 936.41 81.2 934.97C83.13 930.1 87.92 926.7 93.47 926.78C95.93 926.82 98.22 927.53 100.17 928.74C102.92 930.46 104.98 933.17 105.84 936.37C106.16 937.52 106.32 938.74 106.3 939.99C106.2 947.18 100.28 952.92 93.09 952.82C92.95 952.82 92.8 952.82 92.66 952.8C85.67 952.47 80.16 946.66 80.26 939.62L80.27 939.61ZM160.68 991.17C156.39 991.11 152.54 989.28 149.82 986.39C147.19 983.6 145.6 979.83 145.66 975.7C145.73 970.51 148.39 965.97 152.4 963.26C154.89 961.58 157.9 960.62 161.13 960.67C164.7 960.72 167.97 962 170.54 964.1C174.03 966.94 176.23 971.29 176.16 976.14C176.1 980.21 174.46 983.88 171.81 986.58C169 989.47 165.05 991.24 160.69 991.18L160.68 991.17ZM231.03 952.61C223.84 952.51 218.09 946.59 218.2 939.4C218.3 932.21 224.22 926.46 231.41 926.57C238.6 926.67 244.35 932.59 244.24 939.78C244.14 946.97 238.22 952.72 231.03 952.61Z" fill="#ED1E79"/>
<path d="M93.4702 926.77C87.9202 926.69 83.1302 930.1 81.2002 934.96C68.3602 910.32 58.4902 869.84 85.9602 818.31L62.7502 805.88L69.5602 789.42L105.16 805.32C105.16 805.32 62.4302 856 93.6002 917.46C95.6802 921.55 97.8702 925.3 100.16 928.72C98.2102 927.51 95.9202 926.79 93.4602 926.76L93.4702 926.77Z" fill="#ED1E79"/>
<path d="M152.38 963.26C148.38 965.96 145.72 970.51 145.64 975.7C145.58 979.83 147.17 983.61 149.8 986.39C117.01 982.28 100.7 961.79 100.7 961.79C100.7 961.79 97.2801 958.69 92.6501 952.8C92.7901 952.81 92.9401 952.82 93.0801 952.82C100.27 952.92 106.18 947.18 106.29 939.99C106.31 938.74 106.15 937.52 105.83 936.37C120.45 954.02 137.79 960.95 152.36 963.27L152.38 963.26Z" fill="#ED1E79"/>
<path d="M171.8 986.57C174.44 983.87 176.09 980.2 176.15 976.13C176.22 971.28 174.02 966.93 170.53 964.09C178.35 963.6 183.33 962.18 183.33 962.18C183.33 962.18 190.15 960.76 193.97 964.45C200.34 970.6 201.5 983.54 171.8 986.57Z" fill="#ED1E79"/>
<path d="M210.66 969.17C216.415 969.17 221.08 964.504 221.08 958.75C221.08 952.995 216.415 948.33 210.66 948.33C204.905 948.33 200.24 952.995 200.24 958.75C200.24 964.504 204.905 969.17 210.66 969.17Z" fill="#ED1E79"/>
<path d="M440.53 456.35L362.02 503.89C343.73 514.96 333.87 535.93 337.01 557.08L350.47 647.87L300.84 562.14C291.88 546.67 274.27 538.39 256.64 541.35L158.96 557.8L238.06 514.92C259.71 503.18 271.22 478.72 266.45 454.56L249.03 366.29L297.25 444.01C308.38 461.95 329.02 471.66 349.94 468.79L440.55 456.36L440.53 456.35Z" fill="#ED1E79"/>
<path d="M732.52 542.23C732.52 584.36 727.17 620.01 710.86 647.69C686.03 689.94 635.64 713.67 539.78 713.67C443.92 713.67 396.07 691.12 370.58 650.8C352.8 622.71 347.05 585.95 347.05 542.23C347.05 435.79 433.34 264.31 539.79 264.31C646.24 264.31 732.53 435.79 732.53 542.23H732.52Z" fill="#1B1464"/>
<path d="M710.86 647.7C686.03 689.95 635.64 713.68 539.78 713.68C443.92 713.68 396.07 691.13 370.58 650.81C373.54 598.19 448.63 556.08 540.85 556.08C633.07 556.08 705.18 596.54 710.86 647.7Z" fill="#1B1464"/>
<path d="M403.48 626.359C429.946 626.359 451.4 604.905 451.4 578.44C451.4 551.974 429.946 530.52 403.48 530.52C377.015 530.52 355.56 551.974 355.56 578.44C355.56 604.905 377.015 626.359 403.48 626.359Z" fill="#1B1464"/>
<path d="M669.69 622.099C696.156 622.099 717.61 600.645 717.61 574.179C717.61 547.714 696.156 526.259 669.69 526.259C643.225 526.259 621.77 547.714 621.77 574.179C621.77 600.645 643.225 622.099 669.69 622.099Z" fill="#1B1464"/>
<path d="M564.28 462.309C564.28 462.309 622.35 424.489 623.13 420.009C623.91 415.519 601.3 419.779 594.5 421.909C587.7 424.039 578.37 429.279 572.39 437.309C566.41 445.339 564.28 462.309 564.28 462.309Z" fill="#1B1464"/>
<path d="M611.13 511.349C635.828 511.349 655.85 491.327 655.85 466.629C655.85 441.931 635.828 421.909 611.13 421.909C586.432 421.909 566.41 441.931 566.41 466.629C566.41 491.327 586.432 511.349 611.13 511.349Z" fill="#1B1464"/>
<path d="M603.49 472.079C614.331 472.079 623.12 463.291 623.12 452.449C623.12 441.608 614.331 432.819 603.49 432.819C592.649 432.819 583.86 441.608 583.86 452.449C583.86 463.291 592.649 472.079 603.49 472.079Z" fill="#1B1464"/>
<path d="M648.23 465.799C653.42 470.989 650.07 482.769 640.74 492.099C631.41 501.429 619.63 504.779 614.44 499.589C609.25 494.399 615.98 487.959 625.31 478.629C634.64 469.299 643.03 460.599 648.23 465.799Z" fill="#1B1464"/>
<path d="M582.93 487.069C588.26 487.069 592.58 482.749 592.58 477.419C592.58 472.089 588.26 467.769 582.93 467.769C577.601 467.769 573.28 472.089 573.28 477.419C573.28 482.749 577.601 487.069 582.93 487.069Z" fill="#1B1464"/>
<path d="M643.07 436.809C634.55 428.289 626.15 421.899 612.14 421.899C570.26 421.899 564.27 460.699 564.27 462.309C564.27 434.679 585.25 412.279 611.12 412.279C624.87 412.279 638.81 415.509 649.45 426.159C660.1 436.809 670.75 458.109 692.04 436.809C692.49 436.079 681.39 460.239 666.48 455.979C651.71 451.759 651.57 445.329 643.05 436.809H643.07Z" fill="#1B1464"/>
<path d="M671.8 444.059C671.37 444.169 670.93 444.269 670.46 444.339C670.27 444.379 670.1 444.399 669.91 444.429C660.41 445.579 656.09 443.899 651.15 441.619C650.04 440.449 648.83 439.229 647.34 437.959C645.49 436.359 643.63 434.869 641.74 433.489C638.35 430.399 634.88 427.739 630.94 425.739C635.22 425.909 639.54 426.609 643.89 428.059C648.3 429.489 653.18 431.829 658.07 433.429C658.33 433.519 658.58 433.599 658.84 433.689C668.36 436.669 677.94 436.629 684.52 421.929C684.58 422.629 683.92 440.859 671.81 444.079L671.8 444.059Z" fill="#1B1464"/>
<path d="M666.5 455.979C654.32 452.489 652.08 447.499 646.89 441.069C646.49 440.579 646.08 440.089 645.63 439.579C644.86 438.689 644.03 437.769 643.07 436.809C641.92 435.659 640.77 434.529 639.6 433.469C638.79 432.749 637.98 432.019 637.17 431.339C634.53 429.149 631.8 427.249 628.8 425.719C626.22 424.419 623.43 423.399 620.37 422.739C617.86 422.209 615.13 421.909 612.15 421.909C570.26 421.909 564.27 460.709 564.27 462.309C564.27 434.689 585.25 412.279 611.12 412.279C624.86 412.279 638.81 415.519 649.45 426.169C650.86 427.579 652.3 429.189 653.73 430.879C654.01 431.199 654.28 431.519 654.56 431.839C655.01 432.369 655.45 432.879 655.92 433.419C657.22 434.909 658.54 436.399 659.9 437.809C662.26 440.259 664.78 442.449 667.52 443.939C667.78 444.089 668.03 444.219 668.31 444.339C674.64 447.409 682.2 446.659 692.03 436.819C692.48 436.099 681.38 460.249 666.47 455.989L666.5 455.979Z" fill="#1B1464"/>
<path d="M663.97 435.619C663.67 435.829 663.33 436.049 662.97 436.259C662.84 436.349 662.71 436.409 662.57 436.489C661.63 436.979 660.76 437.409 659.93 437.789C654.22 440.349 650.64 440.279 646.56 439.999C646.26 439.849 645.96 439.719 645.64 439.569C644.87 438.679 644.04 437.759 643.08 436.799C641.93 435.649 640.78 434.519 639.61 433.459C638.8 432.739 637.99 432.009 637.18 431.329C641.03 431.179 645.42 431.499 649.62 431.289C649.85 431.269 650.09 431.269 650.32 431.249C651.49 431.159 652.64 431.059 653.75 430.869C660.88 429.719 666.76 425.869 667.47 413.919C667.73 414.449 672.79 429.299 663.98 435.619H663.97Z" fill="#1B1464"/>
<path d="M517.441 462.309C517.441 462.309 459.37 424.489 458.59 420.009C457.81 415.519 480.42 419.779 487.22 421.909C494.02 424.039 503.351 429.279 509.331 437.309C515.311 445.339 517.441 462.309 517.441 462.309Z" fill="#1B1464"/>
<path d="M470.58 511.349C495.279 511.349 515.3 491.327 515.3 466.629C515.3 441.931 495.279 421.909 470.58 421.909C445.882 421.909 425.86 441.931 425.86 466.629C425.86 491.327 445.882 511.349 470.58 511.349Z" fill="#1B1464"/>
<path d="M462.95 472.079C473.792 472.079 482.58 463.291 482.58 452.449C482.58 441.608 473.792 432.819 462.95 432.819C452.109 432.819 443.32 441.608 443.32 452.449C443.32 463.291 452.109 472.079 462.95 472.079Z" fill="#1B1464"/>
<path d="M507.68 465.799C512.87 470.989 509.52 482.769 500.19 492.099C490.86 501.429 479.08 504.779 473.89 499.589C468.7 494.399 475.43 487.959 484.76 478.629C494.09 469.299 502.48 460.599 507.68 465.799Z" fill="#1B1464"/>
<path d="M442.38 487.069C447.71 487.069 452.03 482.749 452.03 477.419C452.03 472.089 447.71 467.769 442.38 467.769C437.051 467.769 432.73 472.089 432.73 477.419C432.73 482.749 437.051 487.069 442.38 487.069Z" fill="#1B1464"/>
<path d="M438.64 436.809C447.16 428.289 455.56 421.899 469.57 421.899C511.45 421.899 517.44 460.699 517.44 462.309C517.44 434.679 496.46 412.279 470.59 412.279C456.84 412.279 442.9 415.509 432.26 426.159C421.61 436.809 410.96 458.109 389.67 436.809C389.22 436.079 400.32 460.239 415.23 455.979C430 451.759 430.14 445.329 438.66 436.809H438.64Z" fill="#1B1464"/>
<path d="M409.91 444.059C410.34 444.169 410.78 444.269 411.25 444.339C411.44 444.379 411.61 444.399 411.8 444.429C421.3 445.579 425.62 443.899 430.56 441.619C431.67 440.449 432.88 439.229 434.37 437.959C436.22 436.359 438.08 434.869 439.97 433.489C443.36 430.399 446.83 427.739 450.77 425.739C446.49 425.909 442.17 426.609 437.82 428.059C433.41 429.489 428.53 431.829 423.64 433.429C423.38 433.519 423.13 433.599 422.87 433.689C413.35 436.669 403.77 436.629 397.19 421.929C397.13 422.629 397.79 440.859 409.9 444.079L409.91 444.059Z" fill="#1B1464"/>
<path d="M415.21 455.979C427.39 452.489 429.63 447.499 434.82 441.069C435.22 440.579 435.63 440.089 436.08 439.579C436.85 438.689 437.68 437.769 438.64 436.809C439.79 435.659 440.94 434.529 442.11 433.469C442.92 432.749 443.73 432.019 444.54 431.339C447.18 429.149 449.91 427.249 452.91 425.719C455.49 424.419 458.28 423.399 461.34 422.739C463.85 422.209 466.58 421.909 469.56 421.909C511.45 421.909 517.44 460.709 517.44 462.309C517.44 434.689 496.46 412.279 470.59 412.279C456.85 412.279 442.9 415.519 432.26 426.169C430.85 427.579 429.41 429.189 427.98 430.879C427.7 431.199 427.43 431.519 427.15 431.839C426.7 432.369 426.26 432.879 425.79 433.419C424.49 434.909 423.17 436.399 421.81 437.809C419.45 440.259 416.93 442.449 414.19 443.939C413.93 444.089 413.68 444.219 413.4 444.339C407.07 447.409 399.51 446.659 389.68 436.819C389.23 436.099 400.33 460.249 415.24 455.989L415.21 455.979Z" fill="#1B1464"/>
<path d="M417.75 435.619C418.05 435.829 418.39 436.049 418.75 436.259C418.88 436.349 419.01 436.409 419.15 436.489C420.09 436.979 420.96 437.409 421.79 437.789C427.5 440.349 431.08 440.279 435.16 439.999C435.46 439.849 435.76 439.719 436.08 439.569C436.85 438.679 437.68 437.759 438.64 436.799C439.79 435.649 440.94 434.519 442.11 433.459C442.92 432.739 443.73 432.009 444.54 431.329C440.69 431.179 436.3 431.499 432.1 431.289C431.87 431.269 431.63 431.269 431.4 431.249C430.23 431.159 429.08 431.059 427.97 430.869C420.84 429.719 414.96 425.869 414.25 413.919C413.99 414.449 408.93 429.299 417.74 435.619H417.75Z" fill="#1B1464"/>
<path d="M617.408 605.068C619.211 592.254 614.062 580.937 605.908 579.789C597.754 578.642 589.682 588.099 587.879 600.913C586.076 613.727 591.224 625.044 599.378 626.192C607.533 627.339 615.605 617.882 617.408 605.068Z" fill="#1B1464"/>
<path d="M473.029 625.734C481.184 624.587 486.332 613.269 484.529 600.455C482.726 587.642 474.654 578.184 466.5 579.332C458.345 580.479 453.197 591.797 455 604.611C456.803 617.424 464.875 626.882 473.029 625.734Z" fill="#1B1464"/>
<path d="M423.41 403.989C419.78 391.979 430.71 378.049 447.84 372.859C464.97 367.679 481.8 373.209 485.43 385.209C485.64 385.909 467.09 374.689 449.96 379.869C432.83 385.049 423.2 403.279 423.41 403.979V403.989Z" fill="#1B1464"/>
<path d="M509.57 677.78C511.53 665.58 530.47 658.47 551.86 661.91C573.26 665.35 589.01 678.03 587.05 690.23C586.94 690.94 572.11 672.47 550.72 669.03C529.32 665.59 509.69 677.06 509.57 677.77V677.78Z" fill="#1B1464"/>
<path d="M720.79 318.6C713.27 334.43 705.45 347.14 696.07 355.43C681.77 368.1 663.81 370.5 637.71 358.1C612.26 346.01 602.6 331.04 602.85 312.59C603.02 299.73 608.02 285.17 615.82 268.74C634.82 228.74 706.89 183.98 717.91 189.21C728.93 194.44 739.79 278.58 720.79 318.58V318.6Z" fill="#1B1464"/>
<path d="M705.96 322.02C699.32 335.99 692.71 347.34 685.3 355.09C682.34 358.2 679.25 360.73 675.97 362.61C662.81 342.74 641.85 320.57 626.67 305.56C628.69 300.02 631.25 294.14 634.19 287.95C650.97 252.64 706.32 209.24 713.86 212.82C721.38 216.4 722.72 286.72 705.96 322.03V322.02Z" fill="#1B1464"/>
<path d="M358.22 318.58C365.74 334.41 373.56 347.12 382.94 355.41C397.24 368.08 415.2 370.48 441.3 358.08C466.75 345.99 476.41 331.02 476.16 312.57C475.99 299.71 470.99 285.15 463.19 268.72C444.19 228.72 372.12 183.96 361.1 189.19C350.08 194.42 339.22 278.56 358.22 318.56V318.58Z" fill="#1B1464"/>
<path d="M373.04 322C379.68 335.97 386.29 347.32 393.7 355.07C396.66 358.18 399.75 360.71 403.03 362.59C416.19 342.72 437.15 320.55 452.33 305.54C450.31 300 447.75 294.12 444.81 287.93C428.03 252.62 372.68 209.22 365.14 212.8C357.62 216.38 356.28 286.7 373.04 322.01V322Z" fill="#1B1464"/>
<path d="M599.97 384.829C603.79 372.879 620.71 367.619 637.75 373.069C654.79 378.519 665.51 392.629 661.69 404.579C661.47 405.279 652.56 385.499 635.52 380.049C618.48 374.599 600.2 384.129 599.97 384.829Z" fill="#1B1464"/>
<path d="M550.13 245.79C533.31 245.59 437.33 242.35 462.95 320C462.95 320 466.27 348.56 533.15 369.98C600.03 391.4 566.41 427.03 566.41 427.03C566.41 427.03 669.98 371.77 637.18 308.84C604.38 245.91 566.95 245.99 550.14 245.78L550.13 245.79Z" fill="#1B1464"/>
<path d="M566.41 427.03C566.41 427.03 605.12 408.41 612.63 372.86C620.15 337.31 601.06 255.98 555.76 249.34C510.47 242.7 542.17 271.73 551.11 278.66C564.27 288.86 589.2 314.33 593.71 330.78C599.89 353.34 614.34 376.46 566.4 427.03H566.41Z" fill="#1B1464"/>
<path d="M524.4 278.009C514.51 275.539 501.66 278.009 499.14 295.689C496.61 313.369 506.61 318.639 516.82 323.479C530.5 329.959 566.7 332.089 579.48 317.179C593.43 300.899 592.91 281.279 583.74 268.199C574.33 254.779 566.7 251.159 566.7 251.159C566.7 251.159 562.29 275.479 552.19 278.009C542.08 280.539 534.51 280.539 524.4 278.009Z" fill="#1B1464"/>
<path d="M526.27 250.11C517.61 247.94 506.36 250.11 504.14 265.6C501.93 281.09 510.33 286.56 519.63 289.94C543.97 298.79 560.03 289.37 570.52 278.88C583.8 265.6 584.57 252.05 579.37 239.05C574.94 227.99 561.67 221.35 561.67 221.35C561.67 221.35 559.46 247.9 550.61 250.11C541.76 252.32 535.12 252.32 526.27 250.11Z" fill="#1B1464"/>
<path d="M527.9 219.719C520.77 217.939 511.5 219.719 509.67 232.479C507.85 245.239 514.77 249.739 522.43 252.529C542.48 259.819 555.7 252.059 564.35 243.419C575.29 232.479 573.11 221.409 568.83 210.699C564.57 200.049 553.92 193.659 553.92 193.659C553.92 193.659 555.23 217.899 547.94 219.719C540.65 221.539 535.18 221.539 527.89 219.719H527.9Z" fill="#1B1464"/>
<path d="M530.68 194.309C524.94 192.809 517.47 194.309 516.01 205.009C514.54 215.709 520.11 219.489 526.28 221.829C542.42 227.949 553.07 221.439 560.03 214.189C568.83 205.019 567.39 195.539 562.45 187.279C553 171.489 544.73 170.829 553.93 178.759C553.93 178.759 552.7 192.789 546.83 194.319C540.96 195.849 536.56 195.849 530.69 194.319L530.68 194.309Z" fill="#1B1464"/>
<path d="M533.68 172.729C529.52 171.359 524.12 172.729 523.06 182.489C522 192.249 526.03 195.699 530.5 197.829C542.19 203.409 551.03 200.269 556.07 193.659C562.44 185.289 561.6 173.909 558.2 165.969C554.01 156.209 549.68 155.319 549.68 155.319C549.68 155.319 549.63 171.319 545.38 172.719C541.13 174.109 537.94 174.109 533.69 172.719L533.68 172.729Z" fill="#1B1464"/>
<path d="M535.21 151.659C532.23 150.429 528.35 151.659 527.59 160.469C526.83 169.279 529.72 172.399 532.93 174.319C541.32 179.359 548.19 176.199 551.8 170.229C556.37 162.669 555.45 158.619 553.93 151.059C552.17 142.359 541.32 140.049 541.32 140.049C541.32 140.049 546.65 150.389 543.6 151.649C540.55 152.909 538.26 152.909 535.21 151.649V151.659Z" fill="#1B1464"/>
<path d="M541 116.609C541 116.609 531.29 139.359 531.76 147.499C532.01 151.749 534.1 153.739 534.1 153.739C534.1 153.739 537.83 156.549 542.08 155.319C551.77 152.519 549.6 141.389 548.81 138.319C547.1 131.699 541 116.609 541 116.609Z" fill="#1B1464"/>
<path d="M566.41 427.029C566.41 427.029 653.16 372.109 628.3 293.459C628.3 293.459 692.07 362.589 566.41 427.029Z" fill="#1B1464"/>
<path d="M745.61 527.76C745.61 569.89 740.26 605.54 723.95 633.22C699.12 675.47 648.73 699.2 552.87 699.2C457.01 699.2 409.16 676.65 383.67 636.33C365.89 608.24 360.14 571.48 360.14 527.76C360.14 421.32 446.43 249.84 552.88 249.84C659.33 249.84 745.62 421.32 745.62 527.76H745.61Z" fill="white"/>
<path d="M532.79 476.68C532.79 476.68 434.26 519.29 413.3 434.52C412.08 429.57 470.34 409.91 477.95 412.29C485.56 414.67 516.3 439.75 523 448.74C529.7 457.73 532.79 476.67 532.79 476.67V476.68Z" fill="#1B1464"/>
<path d="M474.95 517.51C502.603 517.51 525.02 495.093 525.02 467.44C525.02 439.787 502.603 417.37 474.95 417.37C447.297 417.37 424.88 439.787 424.88 467.44C424.88 495.093 447.297 517.51 474.95 517.51Z" fill="black"/>
<path d="M483.5 473.54C495.639 473.54 505.48 463.699 505.48 451.56C505.48 439.42 495.639 429.58 483.5 429.58C471.361 429.58 461.52 439.42 461.52 451.56C461.52 463.699 471.361 473.54 483.5 473.54Z" fill="#1A1A1A"/>
<path d="M433.41 466.509C427.59 472.329 431.35 485.509 441.79 495.959C452.24 506.409 465.42 510.159 471.24 504.339C477.06 498.519 469.51 491.319 459.07 480.879C448.62 470.429 439.23 460.699 433.41 466.509Z" fill="#ED1E79"/>
<path d="M506.52 490.329C512.49 490.329 517.33 485.49 517.33 479.519C517.33 473.549 512.49 468.709 506.52 468.709C500.55 468.709 495.71 473.549 495.71 479.519C495.71 485.49 500.55 490.329 506.52 490.329Z" fill="white"/>
<path d="M407.97 422.359C408.36 422.659 408.78 422.96 409.23 423.24C409.41 423.37 409.57 423.47 409.76 423.57C419.03 428.93 424.23 429.1 430.31 428.93C431.97 428.21 433.75 427.5 435.85 426.84C438.46 426.01 441.02 425.29 443.58 424.7C448.42 423.01 453.17 421.799 458.11 421.469C453.63 419.759 448.87 418.579 443.76 418.159C438.59 417.689 432.54 417.96 426.8 417.45C426.5 417.43 426.2 417.4 425.9 417.38C414.79 416.26 404.94 411.999 404.63 393.979C404.26 394.679 396.91 413.74 407.98 422.38L407.97 422.359Z" fill="#1B1464"/>
<path d="M408.18 436.97C422.26 438.73 426.75 434.59 434.93 430.25C435.56 429.92 436.19 429.6 436.88 429.27C438.06 428.69 439.32 428.11 440.73 427.54C442.42 426.86 444.1 426.21 445.78 425.62C446.93 425.23 448.08 424.84 449.22 424.5C452.9 423.4 454.35 424.13 458.12 423.87C461.34 423.67 465.21 424.34 468.65 425.01C471.47 425.57 484.71 431.48 487.47 433.35C520.6 455.76 531.82 474.97 532.08 476.74C525.03 428.4 501.87 418.03 487.17 411.46C473.13 405.19 454.48 407.49 438.84 413.77C436.77 414.6 434.57 415.63 432.36 416.73C431.93 416.94 431.51 417.14 431.08 417.35C430.39 417.7 429.7 418.03 428.98 418.37C426.99 419.33 424.97 420.29 422.95 421.14C419.44 422.62 415.89 423.77 412.4 424.1C412.07 424.14 411.75 424.16 411.41 424.17C403.55 424.54 396.09 420.45 390.29 405.99C390.15 405.05 390.95 434.79 408.17 436.97H408.18Z" fill="#1B1464"/>
<path d="M419.75 417.13C419.96 417.48 420.22 417.85 420.5 418.23C420.59 418.37 420.7 418.5 420.81 418.65C421.56 419.57 422.27 420.39 422.96 421.15C427.71 426.29 431.42 427.8 435.76 429.31C436.13 429.29 436.5 429.29 436.89 429.27C438.07 428.69 439.33 428.11 440.74 427.54C442.43 426.86 444.11 426.21 445.79 425.62C446.94 425.23 448.09 424.84 449.23 424.5C445.33 422.65 440.67 421.05 436.44 418.98C436.21 418.86 435.97 418.75 435.74 418.63C434.57 418.03 433.43 417.41 432.38 416.73C425.54 412.41 421.18 405.85 425.72 393.24C425.22 393.68 413.47 406.73 419.77 417.12L419.75 417.13Z" fill="#1B1464"/>
<path d="M723.95 633.22C699.12 675.47 648.73 699.2 552.87 699.2C457.01 699.2 409.16 676.65 383.67 636.33C386.63 583.71 461.72 541.6 553.94 541.6C646.16 541.6 718.27 582.06 723.95 633.22Z" fill="#F2B3DA"/>
<path d="M416.57 611.89C443.036 611.89 464.49 590.435 464.49 563.97C464.49 537.504 443.036 516.05 416.57 516.05C390.105 516.05 368.65 537.504 368.65 563.97C368.65 590.435 390.105 611.89 416.57 611.89Z" fill="#ED1E79"/>
<path d="M682.78 607.63C709.246 607.63 730.7 586.176 730.7 559.71C730.7 533.245 709.246 511.79 682.78 511.79C656.315 511.79 634.86 533.245 634.86 559.71C634.86 586.176 656.315 607.63 682.78 607.63Z" fill="#ED1E79"/>
<path d="M574.52 476.68C574.52 476.68 673.05 519.29 694.01 434.52C695.23 429.57 636.97 409.91 629.36 412.29C621.75 414.67 591.01 439.75 584.31 448.74C577.61 457.73 574.52 476.67 574.52 476.67V476.68Z" fill="#1B1464"/>
<path d="M632.36 517.51C660.013 517.51 682.43 495.093 682.43 467.44C682.43 439.787 660.013 417.37 632.36 417.37C604.707 417.37 582.29 439.787 582.29 467.44C582.29 495.093 604.707 517.51 632.36 517.51Z" fill="black"/>
<path d="M623.81 473.54C635.949 473.54 645.79 463.699 645.79 451.56C645.79 439.42 635.949 429.58 623.81 429.58C611.671 429.58 601.83 439.42 601.83 451.56C601.83 463.699 611.671 473.54 623.81 473.54Z" fill="#1A1A1A"/>
<path d="M673.89 466.509C679.71 472.329 675.95 485.509 665.51 495.959C655.06 506.409 641.88 510.159 636.06 504.339C630.24 498.519 637.79 491.319 648.23 480.879C658.68 470.429 668.07 460.699 673.89 466.509Z" fill="#ED1E79"/>
<path d="M600.78 490.329C606.75 490.329 611.59 485.49 611.59 479.519C611.59 473.549 606.75 468.709 600.78 468.709C594.81 468.709 589.97 473.549 589.97 479.519C589.97 485.49 594.81 490.329 600.78 490.329Z" fill="white"/>
<path d="M699.34 422.359C698.95 422.659 698.53 422.96 698.08 423.24C697.9 423.37 697.74 423.47 697.55 423.57C688.28 428.93 683.08 429.1 677 428.93C675.34 428.21 673.56 427.5 671.46 426.84C668.85 426.01 666.29 425.29 663.73 424.7C658.89 423.01 654.14 421.799 649.2 421.469C653.68 419.759 658.44 418.579 663.55 418.159C668.72 417.689 674.77 417.96 680.51 417.45C680.81 417.43 681.11 417.4 681.41 417.38C692.52 416.26 702.37 411.999 702.68 393.979C703.05 394.679 710.4 413.74 699.33 422.38L699.34 422.359Z" fill="#1B1464"/>
<path d="M699.12 436.97C685.04 438.73 680.55 434.59 672.37 430.25C671.74 429.92 671.11 429.6 670.42 429.27C669.24 428.69 667.98 428.11 666.57 427.54C664.88 426.86 663.2 426.21 661.52 425.62C660.37 425.23 659.22 424.84 658.08 424.5C654.4 423.4 652.95 424.13 649.18 423.87C645.96 423.67 642.09 424.34 638.65 425.01C635.83 425.57 622.59 431.48 619.83 433.35C586.7 455.76 575.48 474.97 575.22 476.74C582.27 428.4 605.43 418.03 620.13 411.46C634.17 405.19 652.82 407.49 668.46 413.77C670.53 414.6 672.73 415.63 674.94 416.73C675.37 416.94 675.79 417.14 676.22 417.35C676.91 417.7 677.6 418.03 678.32 418.37C680.31 419.33 682.33 420.29 684.35 421.14C687.86 422.62 691.41 423.77 694.9 424.1C695.23 424.14 695.55 424.16 695.89 424.17C703.75 424.54 711.21 420.45 717.01 405.99C717.15 405.05 716.35 434.79 699.13 436.97H699.12Z" fill="#1B1464"/>
<path d="M687.56 417.13C687.35 417.48 687.09 417.85 686.81 418.23C686.72 418.37 686.61 418.5 686.5 418.65C685.75 419.57 685.04 420.39 684.35 421.15C679.6 426.29 675.89 427.8 671.55 429.31C671.18 429.29 670.81 429.29 670.42 429.27C669.24 428.69 667.98 428.11 666.57 427.54C664.88 426.86 663.2 426.21 661.52 425.62C660.37 425.23 659.22 424.84 658.08 424.5C661.98 422.65 666.64 421.05 670.87 418.98C671.1 418.86 671.34 418.75 671.57 418.63C672.74 418.03 673.88 417.41 674.93 416.73C681.77 412.41 686.13 405.85 681.59 393.24C682.09 393.68 693.84 406.73 687.54 417.12L687.56 417.13Z" fill="#1B1464"/>
<path d="M630.493 590.6C632.296 577.786 627.148 566.468 618.993 565.321C610.839 564.173 602.767 573.631 600.964 586.445C599.161 599.258 604.309 610.576 612.464 611.724C620.618 612.871 628.69 603.414 630.493 590.6Z" fill="black"/>
<path d="M486.115 611.262C494.27 610.115 499.418 598.797 497.615 585.983C495.812 573.169 487.74 563.712 479.586 564.859C471.431 566.007 466.283 577.325 468.086 590.138C469.889 602.952 477.961 612.41 486.115 611.262Z" fill="black"/>
<path d="M600.53 408.6C596.9 396.59 593.25 390.23 610.38 385.05C627.51 379.87 636.49 376.89 664.9 366.32C665.59 366.06 657.09 381.71 612.81 392.07C608.15 393.16 600.31 407.9 600.52 408.61L600.53 408.6Z" fill="#1B1464"/>
<path d="M563.13 664.73C559.84 676.64 540.24 681.63 519.35 675.86C501.74 671 488.73 658.74 482.8 648.32C481.83 646.61 486.97 645.71 487.49 643.84C487.68 643.14 500.39 663.13 521.28 668.9C542.17 674.67 562.94 665.43 563.14 664.73H563.13Z" fill="#1A1A1A"/>
<path d="M733.88 304.13C726.36 319.96 718.54 332.67 709.16 340.96C694.86 353.63 676.9 356.03 650.8 343.63C625.35 331.54 615.69 316.57 615.94 298.12C616.11 285.26 621.11 270.7 628.91 254.27C647.91 214.27 719.98 169.51 731 174.74C742.02 179.97 752.88 264.11 733.88 304.11V304.13Z" fill="white"/>
<path d="M719.05 307.55C712.41 321.52 705.8 332.87 698.39 340.62C695.43 343.73 692.34 346.26 689.06 348.14C675.9 328.27 654.94 306.1 639.76 291.09C641.78 285.55 644.34 279.67 647.28 273.48C664.06 238.17 719.41 194.77 726.95 198.35C734.47 201.93 735.81 272.25 719.05 307.56V307.55Z" fill="#ED1E79"/>
<path d="M371.3 304.11C378.82 319.94 386.64 332.65 396.02 340.94C410.32 353.61 428.28 356.01 454.38 343.61C479.83 331.52 489.49 316.55 489.24 298.1C489.07 285.24 484.07 270.68 476.27 254.25C457.27 214.25 385.2 169.49 374.18 174.72C363.16 179.95 352.3 264.09 371.3 304.09V304.11Z" fill="white"/>
<path d="M386.13 307.53C392.77 321.5 399.38 332.85 406.79 340.6C409.75 343.71 412.84 346.24 416.12 348.12C429.28 328.25 450.24 306.08 465.42 291.07C463.4 285.53 460.84 279.65 457.9 273.46C441.12 238.15 385.77 194.75 378.23 198.33C370.71 201.91 369.37 272.23 386.13 307.54V307.53Z" fill="#ED1E79"/>
<path d="M563.22 231.31C546.4 231.11 450.42 227.87 476.04 305.52C476.04 305.52 479.36 334.08 546.24 355.5C613.12 376.92 579.5 412.55 579.5 412.55C579.5 412.55 683.07 357.29 650.27 294.36C617.47 231.43 580.04 231.51 563.23 231.3L563.22 231.31Z" fill="#F2B3DA"/>
<path d="M579.49 412.56C579.49 412.56 618.2 393.94 625.71 358.39C633.23 322.84 614.14 241.51 568.84 234.87C523.55 228.23 555.25 257.26 564.19 264.19C577.35 274.39 602.28 299.86 606.79 316.31C612.97 338.87 627.42 361.99 579.48 412.56H579.49Z" fill="#FF78B5"/>
<path d="M537.49 263.54C527.6 261.07 514.75 263.54 512.23 281.22C509.7 298.9 519.7 304.17 529.91 309.01C543.59 315.49 579.79 317.62 592.57 302.71C606.52 286.43 606 266.81 596.83 253.73C587.42 240.31 579.79 236.69 579.79 236.69C579.79 236.69 575.38 261.01 565.28 263.54C555.17 266.07 547.6 266.07 537.49 263.54Z" fill="#29ABE2"/>
<path d="M539.36 235.64C530.7 233.47 519.45 235.64 517.23 251.13C515.02 266.62 523.42 272.09 532.72 275.47C557.06 284.32 573.12 274.9 583.61 264.41C596.89 251.13 597.66 237.58 592.46 224.58C588.03 213.52 574.76 206.88 574.76 206.88C574.76 206.88 572.55 233.43 563.7 235.64C554.85 237.85 548.21 237.85 539.36 235.64Z" fill="#F9438E"/>
<path d="M540.99 205.25C533.86 203.47 524.59 205.25 522.76 218.01C520.94 230.77 527.86 235.27 535.52 238.06C555.57 245.35 568.79 237.59 577.44 228.95C588.38 218.01 586.2 206.94 581.92 196.23C577.66 185.58 567.01 179.19 567.01 179.19C567.01 179.19 568.32 203.43 561.03 205.25C553.74 207.07 548.27 207.07 540.98 205.25H540.99Z" fill="#FBB03B"/>
<path d="M543.77 179.84C538.03 178.34 530.56 179.84 529.1 190.54C527.63 201.24 533.2 205.02 539.37 207.36C555.51 213.48 566.16 206.97 573.12 199.72C581.92 190.55 580.48 181.07 575.54 172.81C566.09 157.02 557.82 156.36 567.02 164.29C567.02 164.29 565.79 178.32 559.92 179.85C554.05 181.38 549.65 181.38 543.78 179.85L543.77 179.84Z" fill="#FF78B5"/>
<path d="M546.77 158.26C542.61 156.89 537.21 158.26 536.15 168.02C535.09 177.78 539.12 181.23 543.59 183.36C555.28 188.94 564.12 185.8 569.16 179.19C575.53 170.82 574.69 159.44 571.29 151.5C567.1 141.74 562.77 140.85 562.77 140.85C562.77 140.85 562.72 156.85 558.47 158.25C554.22 159.64 551.03 159.64 546.78 158.25L546.77 158.26Z" fill="#76DCFF"/>
<path d="M548.3 137.19C545.32 135.96 541.44 137.19 540.68 146C539.92 154.81 542.81 157.93 546.02 159.85C554.41 164.89 561.28 161.73 564.89 155.76C569.46 148.2 568.54 144.15 567.02 136.59C565.26 127.89 554.41 125.58 554.41 125.58C554.41 125.58 559.74 135.92 556.69 137.18C553.64 138.44 551.35 138.44 548.3 137.18V137.19Z" fill="#FFEA83"/>
<path d="M554.09 102.13C554.09 102.13 544.38 124.88 544.85 133.02C545.1 137.27 547.19 139.26 547.19 139.26C547.19 139.26 550.92 142.07 555.17 140.84C564.86 138.04 562.69 126.91 561.9 123.84C560.19 117.22 554.09 102.13 554.09 102.13Z" fill="#F2B3DA"/>
<path d="M579.49 412.56C579.49 412.56 666.24 357.64 641.38 278.99C641.38 278.99 705.15 348.12 579.49 412.56Z" fill="#FF78B5"/>
<path d="M506.77 408.6C510.4 396.59 514.05 390.23 496.92 385.05C479.79 379.87 470.81 376.89 442.4 366.32C441.71 366.06 450.21 381.71 494.49 392.07C499.15 393.16 506.99 407.9 506.78 408.61L506.77 408.6Z" fill="#1B1464"/>
<path d="M489.4 634.88C492.42 639.11 491.52 644.93 487.38 647.9C483.24 650.87 477.43 649.84 474.41 645.61C474.23 645.36 481.48 648.39 485.62 645.43C489.76 642.47 489.59 635.13 489.41 634.88H489.4Z" fill="#1A1A1A"/>
<path d="M561.18 457.609C561.18 457.609 574.23 471.579 580.55 454.539C586.87 437.499 580.55 478.969 580.55 478.969C580.55 478.969 560 473.549 561.19 457.609H561.18Z" fill="#1B1464"/>
<path d="M546.14 457.609C546.14 457.609 533.09 471.579 526.77 454.539C520.45 437.499 526.77 478.969 526.77 478.969C526.77 478.969 547.32 473.549 546.13 457.609H546.14Z" fill="#1B1464"/>
<path d="M538.35 412.35C538.35 412.35 550.04 447.73 546.02 449.57C542 451.41 532.7 412.35 532.7 412.35C532.7 412.35 533.99 405.96 538.35 412.35Z" fill="#F2B3DA"/>
<path d="M569.64 412.35C569.64 412.35 557.95 447.73 561.97 449.57C565.99 451.41 575.29 412.35 575.29 412.35C575.29 412.35 574 405.96 569.64 412.35Z" fill="#F2B3DA"/>
<path d="M930.74 436.32L857.67 433.02C840.65 432.25 824.83 441.77 817.53 457.17L786.21 523.27L791.33 444.49C792.25 430.27 784.26 416.98 771.26 411.13L699.26 378.74L770.66 385.39C790.21 387.21 808.66 376.11 816.21 357.99L843.79 291.8L841.29 364.65C840.71 381.46 850.08 397.04 865.21 404.41L930.74 436.33V436.32Z" fill="#FFEA83"/>
<path d="M530.38 126.18L493.1 142.87C484.42 146.76 478.91 155.47 479.13 164.99L480.09 205.83L462.87 165.24C459.76 157.92 452.44 153.29 444.49 153.63L400.44 155.53L437.73 140.93C447.94 136.93 454.36 126.76 453.58 115.83L450.73 75.8896L467.76 112.86C471.69 121.39 480.28 126.81 489.67 126.7L530.37 126.18H530.38Z" fill="white"/>
</g>
<defs>
<filter id="filter0_d_1_8790" x="0.140137" y="0.779785" width="1136.13" height="1012.28" filterUnits="userSpaceOnUse" color-interpolation-filters="sRGB">
<feFlood flood-opacity="0" result="BackgroundImageFix"/>
<feColorMatrix in="SourceAlpha" type="matrix" values="0 0 0 0 0 0 0 0 0 0 0 0 0 0 0 0 0 0 127 0" result="hardAlpha"/>
<feOffset dy="4"/>
<feGaussianBlur stdDeviation="2"/>
<feComposite in2="hardAlpha" operator="out"/>
<feColorMatrix type="matrix" values="0 0 0 0 0 0 0 0 0 0 0 0 0 0 0 0 0 0 0.25 0"/>
<feBlend mode="normal" in2="BackgroundImageFix" result="effect1_dropShadow_1_8790"/>
<feBlend mode="normal" in="SourceGraphic" in2="effect1_dropShadow_1_8790" result="shape"/>
</filter>
</defs>
</svg>
