<svg width="882" height="331" viewBox="0 0 882 331" fill="none" xmlns="http://www.w3.org/2000/svg">
<path d="M794.23 4.93945H136.92C88.551 4.93945 49.3401 44.1504 49.3401 92.5195V243.199C49.3401 291.569 88.551 330.78 136.92 330.78H794.23C842.599 330.78 881.81 291.569 881.81 243.199V92.5195C881.81 44.1504 842.599 4.93945 794.23 4.93945Z" fill="white"/>
<path d="M792.94 11.3999H137.58C92.3646 11.3999 55.7102 48.0543 55.7102 93.2699V241.72C55.7102 286.935 92.3646 323.59 137.58 323.59H792.94C838.156 323.59 874.81 286.935 874.81 241.72V93.2699C874.81 48.0543 838.156 11.3999 792.94 11.3999Z" fill="#FF78B5"/>
<path d="M863.69 248.5C863.69 282.13 836.43 309.39 802.8 309.39C769.17 309.39 321.67 312.48 321.67 308.71C321.67 279.8 637.51 302.72 752.48 269.14C807.61 253.04 798.07 187.62 802.79 187.62C836.42 187.62 863.68 214.88 863.68 248.51L863.69 248.5Z" fill="#F2B3DA"/>
<path d="M257.58 307.9C257.58 311.29 270.09 310.19 285.53 310.19C300.97 310.19 313.48 311.28 313.48 307.9C313.48 304.52 300.97 301.77 285.53 301.77C270.09 301.77 257.58 304.51 257.58 307.9Z" fill="#F2B3DA"/>
<path d="M347.42 97.9899V115L354.93 116.41V141.93H317.39V116.47L324.9 115V78.7499L317.39 77.2799V51.8198H362.44L392.47 97.9799V78.8599L384.96 77.2799V51.8198H422.5V77.2799L414.99 78.7499V115L422.5 116.47V141.93H377.39L347.42 97.9999V97.9899Z" fill="white"/>
<path d="M479.52 119.39C482.18 119.39 484.68 119.17 487.03 118.72C489.38 118.27 491.54 117.69 493.51 116.99C495.48 116.29 497.27 115.49 498.88 114.59C500.48 113.69 501.89 112.79 503.1 111.89H512.9V141.92H434.48V116.46L441.99 114.99V78.8599L434.48 77.3899V51.8198H512.9V81.8499H503.46C502.21 80.9899 500.76 80.1098 499.12 79.2098C497.48 78.3098 495.65 77.4999 493.64 76.7799C491.63 76.0599 489.45 75.4699 487.1 75.0199C484.75 74.5699 482.23 74.3499 479.53 74.3499V90.3599L497.13 86.5499V107.31L479.53 103.5V119.4L479.52 119.39Z" fill="white"/>
<path d="M549.91 141.98L525.92 78.6898L517 77.2799V51.8198H573.96V77.2799L567.51 78.6898L577.66 112.07L587.81 78.6898L581.36 77.2799V51.8198H638.32V77.2799L631.87 78.6898L642.02 112.07L652.17 78.6898L645.72 77.2799V51.8198H688.89V77.2799L680.03 78.6898L656.04 141.98H614.28L602.96 107.49L591.7 141.98H549.94H549.91Z" fill="white"/>
<path d="M290.61 239.97C290.61 231.8 291.79 224.9 294.16 219.26C296.53 213.63 299.9 209.02 304.28 205.42C308.46 201.98 313.37 199.32 319 197.44C324.63 195.56 331.1 194.62 338.42 194.62C343.46 194.62 347.94 194.84 351.85 195.27C355.76 195.7 359.25 196.27 362.32 196.97C365.39 197.67 368.13 198.48 370.53 199.37C372.94 200.27 375.17 201.21 377.25 202.19V229H359.59C357.6 226.18 355.38 224.11 352.93 222.78C350.49 221.45 347.97 220.79 345.39 220.79C343.2 220.79 341.08 221.22 339.03 222.08C336.98 222.94 335.15 224.19 333.55 225.83C331.95 227.47 330.66 229.48 329.68 231.84C328.7 234.21 328.21 236.91 328.21 239.96C328.21 246.73 329.74 251.67 332.81 254.8C335.88 257.93 340.25 259.49 345.92 259.49C347.33 259.49 348.74 259.41 350.17 259.26C351.6 259.1 353.03 258.87 354.48 258.56V251.46H343.22V235.39H379.7V278.21C376.61 279.5 373.34 280.72 369.88 281.88C366.42 283.03 362.96 284.03 359.5 284.87C356.04 285.71 352.65 286.3 349.32 286.63C346 286.96 342.93 287.13 340.11 287.13C335.5 287.13 331.08 286.8 326.85 286.13C322.62 285.46 318.69 284.27 315.03 282.55C311.37 280.83 308.04 278.67 305.03 276.07C302.02 273.47 299.45 270.4 297.32 266.86C295.19 263.32 293.54 259.31 292.36 254.84C291.19 250.36 290.6 245.41 290.6 239.97H290.61Z" fill="white"/>
<path d="M450.51 286.07L447.34 270.94H422.82L419.71 286.07H386.33V256.51L393.54 255.04L410.84 195.97H459.29L476.65 255.04L483.86 256.51V286.07H450.48H450.51ZM427.87 250.82H442.3L435.09 216.86L427.88 250.82H427.87Z" fill="white"/>
<path d="M538.2 242.14V286.07H493.21V260.61L500.72 259.14V222.89L493.21 221.42V195.96H538.2L557.09 230.57L575.8 195.96H620.85V221.42L613.34 222.89V259.14L620.85 260.61V286.07H575.8V242.14L557.09 274.52L538.2 242.14Z" fill="white"/>
<path d="M677.87 263.55C680.53 263.55 683.03 263.33 685.38 262.88C687.73 262.43 689.89 261.85 691.86 261.15C693.83 260.45 695.62 259.65 697.23 258.75C698.83 257.85 700.24 256.95 701.45 256.05H711.25V286.08H632.83V260.62L640.34 259.15V223.02L632.83 221.55V195.98H711.25V226.01H701.81C700.56 225.15 699.11 224.27 697.47 223.37C695.83 222.47 694 221.66 691.99 220.94C689.98 220.22 687.8 219.63 685.45 219.18C683.1 218.73 680.58 218.51 677.88 218.51V234.52L695.48 230.71V251.47L677.88 247.66V263.56L677.87 263.55Z" fill="white"/>
<path d="M240.19 272.5C240.19 283.14 238.14 292.15 231.87 299.14C222.33 309.81 202.97 315.81 166.14 315.81C129.31 315.81 110.92 310.11 101.13 299.93C94.3001 292.83 92.0901 283.55 92.0901 272.5C92.0901 245.61 125.25 202.3 166.14 202.3C207.03 202.3 240.19 245.62 240.19 272.5Z" fill="#1B1464"/>
<path d="M240.19 269.01C240.19 279.12 238.24 287.68 232.28 294.32C223.21 304.46 204.82 310.16 169.82 310.16C134.82 310.16 117.35 304.75 108.04 295.07C101.55 288.33 99.4502 279.5 99.4502 269.01C99.4502 243.46 130.96 202.3 169.82 202.3C208.68 202.3 240.19 243.46 240.19 269.01Z" fill="white"/>
<path d="M217.15 269.01C217.15 279.12 215.86 287.68 211.92 294.32C205.92 304.46 193.74 310.16 170.58 310.16C147.42 310.16 135.86 304.75 129.7 295.07C125.4 288.33 124.01 279.5 124.01 269.01C124.01 243.46 144.86 202.3 170.58 202.3C196.3 202.3 217.15 243.46 217.15 269.01Z" fill="#FF78B5"/>
<path d="M119.57 144.02L86.4001 164.1C78.6701 168.78 74.5101 177.64 75.8301 186.57L81.5201 224.93L60.5501 188.71C56.7701 182.17 49.3201 178.67 41.8801 179.93L0.610107 186.88L34.0301 168.76C43.1801 163.8 48.0401 153.47 46.0201 143.26L38.6601 105.96L59.0301 138.8C63.7301 146.38 72.4501 150.48 81.2901 149.27L119.57 144.02Z" fill="#D4145A"/>
<path d="M243.93 196.51C243.93 214.31 241.67 229.37 234.78 241.07C224.29 258.92 203 268.95 162.5 268.95C122 268.95 101.78 259.42 91.0101 242.39C83.5001 230.52 81.0701 214.99 81.0701 196.52C81.0701 151.55 117.53 79.0996 162.5 79.0996C207.47 79.0996 243.93 151.55 243.93 196.52V196.51Z" fill="#1B1464"/>
<path d="M234.78 241.07C224.29 258.92 203 268.95 162.5 268.95C122 268.95 101.78 259.42 91.01 242.39C92.26 220.16 123.99 202.37 162.95 202.37C201.91 202.37 232.38 219.47 234.78 241.08V241.07Z" fill="#1B1464"/>
<path d="M104.91 232.06C116.094 232.06 125.16 222.993 125.16 211.81C125.16 200.626 116.094 191.56 104.91 191.56C93.7264 191.56 84.6602 200.626 84.6602 211.81C84.6602 222.993 93.7264 232.06 104.91 232.06Z" fill="#1B1464"/>
<path d="M217.39 230.26C228.574 230.26 237.64 221.194 237.64 210.01C237.64 198.826 228.574 189.76 217.39 189.76C206.206 189.76 197.14 198.826 197.14 210.01C197.14 221.194 206.206 230.26 217.39 230.26Z" fill="#1B1464"/>
<path d="M172.85 162.739C172.85 162.739 197.39 146.759 197.72 144.869C198.05 142.969 188.5 144.769 185.62 145.669C182.75 146.569 178.8 148.779 176.28 152.169C173.75 155.559 172.85 162.729 172.85 162.729V162.739Z" fill="#1B1464"/>
<path d="M192.65 183.47C203.088 183.47 211.55 175.008 211.55 164.57C211.55 154.132 203.088 145.67 192.65 145.67C182.212 145.67 173.75 154.132 173.75 164.57C173.75 175.008 182.212 183.47 192.65 183.47Z" fill="#1B1464"/>
<path d="M189.42 166.88C194.004 166.88 197.72 163.164 197.72 158.58C197.72 153.996 194.004 150.28 189.42 150.28C184.836 150.28 181.12 153.996 181.12 158.58C181.12 163.164 184.836 166.88 189.42 166.88Z" fill="#1B1464"/>
<path d="M208.32 164.22C210.51 166.41 209.1 171.39 205.16 175.33C201.22 179.27 196.24 180.69 194.05 178.49C191.86 176.29 194.7 173.58 198.64 169.64C202.58 165.7 206.13 162.02 208.32 164.22Z" fill="#1B1464"/>
<path d="M180.73 173.21C182.983 173.21 184.81 171.383 184.81 169.13C184.81 166.876 182.983 165.05 180.73 165.05C178.477 165.05 176.65 166.876 176.65 169.13C176.65 171.383 178.477 173.21 180.73 173.21Z" fill="#1B1464"/>
<path d="M206.14 151.97C202.54 148.37 198.99 145.67 193.07 145.67C175.37 145.67 172.85 162.06 172.85 162.74C172.85 151.07 181.71 141.6 192.65 141.6C198.46 141.6 204.35 142.96 208.85 147.46C213.35 151.96 217.85 160.96 226.85 151.96C227.04 151.65 222.35 161.86 216.05 160.06C209.81 158.28 209.75 155.56 206.15 151.96L206.14 151.97Z" fill="#1B1464"/>
<path d="M218.28 155.03C218.1 155.08 217.91 155.12 217.71 155.15C217.63 155.17 217.56 155.18 217.48 155.19C213.47 155.68 211.64 154.97 209.55 154C209.08 153.51 208.57 152.99 207.94 152.45C207.16 151.78 206.37 151.15 205.57 150.56C204.14 149.26 202.67 148.13 201.01 147.28C202.82 147.35 204.65 147.65 206.48 148.26C208.34 148.86 210.4 149.85 212.47 150.53C212.58 150.57 212.69 150.6 212.79 150.64C216.81 151.9 220.86 151.88 223.64 145.67C223.67 145.97 223.39 153.67 218.27 155.03H218.28Z" fill="#1B1464"/>
<path d="M216.04 160.07C210.89 158.59 209.95 156.49 207.75 153.77C207.58 153.56 207.41 153.36 207.22 153.14C206.9 152.76 206.55 152.38 206.14 151.97C205.65 151.48 205.17 151.01 204.67 150.56C204.33 150.25 203.99 149.95 203.64 149.66C202.52 148.73 201.37 147.93 200.1 147.28C199.01 146.73 197.83 146.3 196.54 146.02C195.48 145.8 194.33 145.67 193.07 145.67C175.37 145.67 172.84 162.06 172.84 162.74C172.84 151.07 181.7 141.6 192.64 141.6C198.44 141.6 204.34 142.97 208.84 147.47C209.43 148.06 210.05 148.75 210.65 149.46C210.77 149.59 210.88 149.73 211 149.86C211.19 150.08 211.38 150.3 211.58 150.53C212.13 151.16 212.69 151.79 213.26 152.38C214.26 153.41 215.32 154.34 216.48 154.97C216.59 155.03 216.7 155.09 216.81 155.14C219.48 156.44 222.68 156.12 226.83 151.96C227.02 151.65 222.33 161.86 216.03 160.06L216.04 160.07Z" fill="#1B1464"/>
<path d="M214.97 151.469C214.84 151.559 214.7 151.65 214.55 151.74C214.5 151.78 214.44 151.799 214.38 151.839C213.98 152.049 213.62 152.23 213.26 152.39C210.85 153.47 209.34 153.439 207.61 153.329C207.48 153.269 207.36 153.21 207.22 153.15C206.9 152.77 206.55 152.389 206.14 151.979C205.65 151.489 205.17 151.019 204.67 150.569C204.33 150.259 203.99 149.96 203.64 149.67C205.27 149.61 207.12 149.74 208.89 149.65C208.99 149.65 209.09 149.65 209.19 149.63C209.68 149.59 210.17 149.549 210.64 149.469C213.65 148.979 216.14 147.36 216.43 142.31C216.54 142.53 218.68 148.809 214.95 151.479L214.97 151.469Z" fill="#1B1464"/>
<path d="M153.06 162.739C153.06 162.739 128.52 146.759 128.19 144.869C127.86 142.969 137.41 144.769 140.29 145.669C143.16 146.569 147.11 148.779 149.63 152.169C152.16 155.559 153.06 162.729 153.06 162.729V162.739Z" fill="#1B1464"/>
<path d="M133.26 183.47C143.698 183.47 152.16 175.008 152.16 164.57C152.16 154.132 143.698 145.67 133.26 145.67C122.822 145.67 114.36 154.132 114.36 164.57C114.36 175.008 122.822 183.47 133.26 183.47Z" fill="#1B1464"/>
<path d="M130.04 166.88C134.624 166.88 138.34 163.164 138.34 158.58C138.34 153.996 134.624 150.28 130.04 150.28C125.456 150.28 121.74 153.996 121.74 158.58C121.74 163.164 125.456 166.88 130.04 166.88Z" fill="#1B1464"/>
<path d="M148.94 164.22C151.13 166.41 149.72 171.39 145.78 175.33C141.84 179.27 136.86 180.69 134.67 178.49C132.48 176.3 135.32 173.58 139.26 169.64C143.2 165.7 146.75 162.02 148.94 164.22Z" fill="#1B1464"/>
<path d="M121.35 173.21C123.603 173.21 125.43 171.383 125.43 169.13C125.43 166.876 123.603 165.05 121.35 165.05C119.097 165.05 117.27 166.876 117.27 169.13C117.27 171.383 119.097 173.21 121.35 173.21Z" fill="#1B1464"/>
<path d="M119.77 151.97C123.37 148.37 126.92 145.67 132.84 145.67C150.54 145.67 153.06 162.06 153.06 162.74C153.06 151.07 144.2 141.6 133.26 141.6C127.45 141.6 121.56 142.96 117.06 147.46C112.56 151.96 108.06 160.96 99.06 151.96C98.87 151.65 103.56 161.86 109.86 160.06C116.1 158.28 116.16 155.56 119.76 151.96L119.77 151.97Z" fill="#1B1464"/>
<path d="M107.63 155.03C107.81 155.08 108 155.12 108.2 155.15C108.28 155.17 108.35 155.18 108.43 155.19C112.44 155.68 114.27 154.97 116.36 154C116.83 153.51 117.34 152.99 117.97 152.45C118.75 151.78 119.54 151.15 120.34 150.56C121.77 149.26 123.24 148.13 124.9 147.28C123.09 147.35 121.26 147.65 119.43 148.26C117.57 148.86 115.51 149.85 113.44 150.53C113.33 150.57 113.22 150.6 113.12 150.64C109.1 151.9 105.05 151.88 102.27 145.67C102.24 145.97 102.52 153.67 107.64 155.03H107.63Z" fill="#1B1464"/>
<path d="M109.87 160.07C115.02 158.59 115.96 156.49 118.16 153.77C118.33 153.56 118.5 153.36 118.69 153.14C119.01 152.76 119.36 152.38 119.77 151.97C120.26 151.48 120.74 151.01 121.24 150.56C121.58 150.25 121.92 149.95 122.27 149.66C123.39 148.73 124.54 147.93 125.81 147.28C126.9 146.73 128.08 146.3 129.37 146.02C130.43 145.8 131.58 145.67 132.84 145.67C150.54 145.67 153.07 162.06 153.07 162.74C153.07 151.07 144.21 141.6 133.27 141.6C127.47 141.6 121.57 142.97 117.07 147.47C116.48 148.06 115.86 148.75 115.26 149.46C115.14 149.59 115.03 149.73 114.91 149.86C114.72 150.08 114.53 150.3 114.33 150.53C113.78 151.16 113.22 151.79 112.65 152.38C111.65 153.41 110.59 154.34 109.43 154.97C109.32 155.03 109.21 155.09 109.1 155.14C106.43 156.44 103.23 156.12 99.08 151.96C98.89 151.65 103.58 161.86 109.88 160.06L109.87 160.07Z" fill="#1B1464"/>
<path d="M110.94 151.469C111.07 151.559 111.21 151.65 111.36 151.74C111.41 151.78 111.47 151.799 111.53 151.839C111.93 152.049 112.29 152.23 112.65 152.39C115.06 153.47 116.57 153.439 118.3 153.329C118.43 153.269 118.55 153.21 118.69 153.15C119.01 152.77 119.36 152.389 119.77 151.979C120.26 151.489 120.74 151.019 121.24 150.569C121.58 150.259 121.92 149.96 122.27 149.67C120.64 149.61 118.79 149.74 117.02 149.65C116.92 149.65 116.82 149.65 116.72 149.63C116.23 149.59 115.74 149.549 115.27 149.469C112.26 148.979 109.77 147.36 109.48 142.31C109.37 142.53 107.23 148.809 110.96 151.479L110.94 151.469Z" fill="#1B1464"/>
<path d="M195.292 223.153C196.054 217.738 193.878 212.956 190.433 212.471C186.987 211.986 183.576 215.983 182.815 221.397C182.053 226.811 184.228 231.593 187.674 232.078C191.119 232.563 194.53 228.567 195.292 223.153Z" fill="#1B1464"/>
<path d="M134.386 231.772C137.831 231.287 140.006 226.505 139.245 221.091C138.483 215.676 135.072 211.68 131.626 212.165C128.181 212.65 126.006 217.432 126.767 222.846C127.529 228.261 130.94 232.257 134.386 231.772Z" fill="#1B1464"/>
<path d="M113.33 138.099C111.79 133.029 116.42 127.139 123.65 124.949C130.89 122.759 138 125.1 139.53 130.17C139.62 130.47 131.78 125.72 124.54 127.91C117.3 130.1 113.23 137.799 113.32 138.099H113.33Z" fill="#1B1464"/>
<path d="M149.74 253.78C150.57 248.62 158.57 245.62 167.61 247.08C176.65 248.53 183.31 253.89 182.48 259.05C182.43 259.35 176.17 251.55 167.13 250.09C158.09 248.64 149.79 253.48 149.75 253.78H149.74Z" fill="#1B1464"/>
<path d="M238.98 102.03C235.8 108.72 232.5 114.09 228.54 117.59C222.5 122.939 214.91 123.96 203.88 118.72C193.13 113.61 189.05 107.29 189.15 99.4895C189.22 94.0595 191.33 87.9095 194.63 80.9595C202.66 64.0595 233.11 45.1495 237.76 47.3595C242.41 49.5695 247 85.1196 238.98 102.02V102.03Z" fill="#1B1464"/>
<path d="M232.71 103.469C229.9 109.369 227.11 114.169 223.98 117.439C222.73 118.749 221.42 119.819 220.04 120.619C214.48 112.219 205.63 102.859 199.21 96.5094C200.06 94.1694 201.14 91.6893 202.39 89.0693C209.48 74.1493 232.87 55.8093 236.05 57.3293C239.23 58.8393 239.79 88.5493 232.71 103.469Z" fill="#1B1464"/>
<path d="M85.79 102.02C88.97 108.71 92.27 114.08 96.23 117.58C102.27 122.93 109.86 123.95 120.89 118.71C131.92 113.47 135.72 107.28 135.62 99.4798C135.55 94.0498 133.44 87.8997 130.14 80.9497C122.11 64.0497 91.66 45.1398 87.01 47.3498C82.36 49.5598 77.77 85.1098 85.79 102.01V102.02Z" fill="#1B1464"/>
<path d="M92.05 103.46C94.86 109.36 97.65 114.16 100.78 117.43C102.03 118.74 103.34 119.81 104.72 120.61C110.28 112.21 119.13 102.85 125.55 96.4996C124.7 94.1596 123.62 91.6797 122.37 89.0597C115.28 74.1397 91.89 55.7996 88.71 57.3196C85.53 58.8296 84.97 88.5396 92.05 103.46Z" fill="#1B1464"/>
<path d="M187.93 130.01C189.55 124.96 196.69 122.74 203.89 125.04C211.09 127.34 215.62 133.3 214 138.35C213.91 138.64 210.14 130.29 202.94 127.99C195.74 125.69 188.02 129.72 187.92 130.01H187.93Z" fill="#1B1464"/>
<path d="M166.87 71.2597C159.77 71.1697 119.21 69.8097 130.03 102.62C130.03 102.62 131.43 114.69 159.69 123.74C187.95 132.79 173.74 147.84 173.74 147.84C173.74 147.84 217.5 124.49 203.64 97.8997C189.78 71.3097 173.97 71.3397 166.86 71.2597H166.87Z" fill="#1B1464"/>
<path d="M173.75 147.84C173.75 147.84 190.1 139.97 193.28 124.95C196.46 109.93 188.39 75.5698 169.25 72.7598C150.11 69.9498 163.51 82.2198 167.28 85.1498C172.84 89.4598 183.37 100.22 185.28 107.17C187.89 116.7 194 126.47 173.74 147.83L173.75 147.84Z" fill="#1B1464"/>
<path d="M156 84.8798C151.82 83.8398 146.39 84.8797 145.33 92.3497C144.26 99.8197 148.49 102.05 152.8 104.09C158.58 106.83 173.87 107.73 179.27 101.43C185.16 94.5498 184.95 86.2597 181.07 80.7297C177.19 75.1997 173.87 73.5298 173.87 73.5298C173.87 73.5298 172.01 83.8098 167.74 84.8698C163.47 85.9398 160.27 85.9398 156 84.8698V84.8798Z" fill="#1B1464"/>
<path d="M156.79 73.0896C153.13 72.1796 148.38 73.0896 147.44 79.6296C146.5 86.1696 150.05 88.4797 153.98 89.9097C164.26 93.6497 171.05 89.6696 175.48 85.2396C181.09 79.6296 181.42 73.8997 179.22 68.4097C177.35 63.7397 171.74 60.9297 171.74 60.9297C171.74 60.9297 170.81 72.1496 167.07 73.0796C163.33 74.0096 160.53 74.0096 156.79 73.0796V73.0896Z" fill="#1B1464"/>
<path d="M157.48 60.2498C154.47 59.4998 150.55 60.2498 149.78 65.6398C149.01 71.0298 151.93 72.9297 155.17 74.1097C163.64 77.1897 169.23 73.9098 172.88 70.2598C177.5 65.6398 176.58 60.9597 174.77 56.4397C172.96 51.9197 168.47 49.2397 168.47 49.2397C168.47 49.2397 169.02 59.4798 165.94 60.2498C162.86 61.0198 160.55 61.0198 157.47 60.2498H157.48Z" fill="#1B1464"/>
<path d="M158.66 49.5099C156.23 48.8799 153.08 49.5099 152.46 54.0299C151.84 58.5499 154.19 60.1499 156.8 61.1399C163.62 63.7199 168.12 60.9699 171.06 57.9099C174.78 54.0299 174.17 50.0299 172.08 46.5399C168.09 39.8699 164.59 39.5898 168.48 42.9398C168.48 42.9398 167.96 48.8699 165.48 49.5099C163 50.1499 161.14 50.1599 158.66 49.5099Z" fill="#1B1464"/>
<path d="M159.92 40.3895C158.16 39.8095 155.88 40.3895 155.43 44.5195C154.98 48.6495 156.69 50.0995 158.57 50.9995C163.51 53.3595 167.24 52.0295 169.37 49.2395C172.06 45.6995 171.71 40.8996 170.27 37.5396C168.5 33.4096 166.67 33.0396 166.67 33.0396C166.67 33.0396 166.65 39.7995 164.85 40.3895C163.05 40.9795 161.71 40.9795 159.91 40.3895H159.92Z" fill="#1B1464"/>
<path d="M160.57 31.4896C159.31 30.9696 157.67 31.4896 157.35 35.2096C157.03 38.9296 158.25 40.2497 159.6 41.0597C163.14 43.1897 166.05 41.8596 167.57 39.3296C169.5 36.1396 169.11 34.4196 168.47 31.2296C167.73 27.5596 163.14 26.5796 163.14 26.5796C163.14 26.5796 165.39 30.9496 164.1 31.4796C162.81 32.0096 161.85 32.0096 160.56 31.4796L160.57 31.4896Z" fill="#1B1464"/>
<path d="M163.01 16.6797C163.01 16.6797 158.91 26.2896 159.11 29.7296C159.22 31.5296 160.1 32.3696 160.1 32.3696C160.1 32.3696 161.68 33.5597 163.47 33.0397C167.57 31.8597 166.65 27.1596 166.31 25.8596C165.59 23.0596 163.01 16.6896 163.01 16.6896V16.6797Z" fill="#1B1464"/>
<path d="M173.75 147.839C173.75 147.839 210.4 124.639 199.9 91.3994C199.9 91.3994 226.84 120.609 173.75 147.839Z" fill="#1B1464"/>
<path d="M249.46 190.4C249.46 208.2 247.2 223.26 240.31 234.96C229.82 252.81 208.53 262.84 168.03 262.84C127.53 262.84 107.31 253.31 96.5401 236.28C89.0301 224.41 86.6001 208.88 86.6001 190.41C86.6001 145.44 123.06 72.9897 168.03 72.9897C213 72.9897 249.46 145.44 249.46 190.41V190.4Z" fill="white"/>
<path d="M240.31 234.96C229.82 252.81 208.53 262.84 168.03 262.84C127.53 262.84 107.31 253.31 96.54 236.28C97.79 214.05 129.52 196.26 168.48 196.26C207.44 196.26 237.91 213.36 240.31 234.97V234.96Z" fill="#F2B3DA"/>
<path d="M110.44 225.95C121.624 225.95 130.69 216.883 130.69 205.7C130.69 194.516 121.624 185.45 110.44 185.45C99.2564 185.45 90.1902 194.516 90.1902 205.7C90.1902 216.883 99.2564 225.95 110.44 225.95Z" fill="#ED1E79"/>
<path d="M222.92 224.15C234.104 224.15 243.17 215.084 243.17 203.9C243.17 192.716 234.104 183.65 222.92 183.65C211.736 183.65 202.67 192.716 202.67 203.9C202.67 215.084 211.736 224.15 222.92 224.15Z" fill="#ED1E79"/>
<path d="M230.9 169.15C230.7 169.2 230.49 169.25 230.27 169.28C230.18 169.3 230.1 169.31 230.01 169.32C225.52 169.86 223.47 169.07 221.13 167.99C220.61 167.44 220.03 166.86 219.33 166.26C218.45 165.5 217.58 164.8 216.68 164.14C215.08 162.68 213.99 167.27 212.13 166.32C214.16 166.4 215.64 160.88 217.7 161.57C219.79 162.24 222.09 163.35 224.41 164.11C224.53 164.15 224.65 164.19 224.77 164.23C229.27 165.64 233.81 165.62 236.92 158.67C236.95 159 236.64 167.63 230.91 169.15H230.9Z" fill="#1B1464"/>
<path d="M228.39 174.79C235.44 176.8 240.69 165.38 240.48 165.72C235.83 170.37 232.25 170.73 229.26 169.28C229.13 169.22 229.01 169.16 228.89 169.09C227.59 168.38 226.4 167.35 225.28 166.19C224.64 165.53 224.01 164.82 223.4 164.11C223.18 163.86 222.97 163.62 222.76 163.36C222.63 163.21 222.5 163.06 222.37 162.91C221.7 162.11 221.01 161.35 220.34 160.68C215.3 155.64 208.7 154.11 202.21 154.11C189.97 154.11 181.33 159.53 174.62 172.13C174.98 171.46 187.93 165.95 200.39 165.32C200.39 165.32 207.86 164.46 217.26 169.49C225.8 174.06 228.41 174.78 228.41 174.78L228.39 174.79Z" fill="#1B1464"/>
<path d="M227.19 165.16C227.05 165.26 226.89 165.36 226.72 165.46C226.66 165.5 226.6 165.53 226.53 165.57C226.09 165.8 225.67 166 225.28 166.18C222.58 167.39 220.89 167.36 218.95 167.23C218.81 167.16 218.67 167.1 218.52 167.03C218.16 166.61 217.76 166.17 217.31 165.72C216.77 165.18 216.22 164.64 215.67 164.14C215.29 163.8 214.9 163.45 214.52 163.13C216.34 163.06 218.42 163.21 220.4 163.11C220.51 163.1 220.62 163.1 220.73 163.09C221.28 163.05 221.83 163 222.35 162.91C225.72 162.37 228.51 160.54 228.84 154.89C228.96 155.14 231.36 162.16 227.19 165.16Z" fill="#1B1464"/>
<path d="M157.29 162.87C157.29 162.87 129.82 144.98 129.45 142.86C129.08 140.74 139.78 142.75 142.99 143.76C146.21 144.77 150.62 147.24 153.45 151.04C156.28 154.84 157.29 162.87 157.29 162.87Z" fill="#1B1464"/>
<path d="M135.13 186.07C146.816 186.07 156.29 176.596 156.29 164.91C156.29 153.224 146.816 143.75 135.13 143.75C123.444 143.75 113.97 153.224 113.97 164.91C113.97 176.596 123.444 186.07 135.13 186.07Z" fill="black"/>
<path d="M131.52 167.49C136.651 167.49 140.81 163.331 140.81 158.2C140.81 153.069 136.651 148.91 131.52 148.91C126.389 148.91 122.23 153.069 122.23 158.2C122.23 163.331 126.389 167.49 131.52 167.49Z" fill="white"/>
<path d="M152.68 164.52C155.14 166.98 153.55 172.55 149.14 176.96C144.73 181.37 139.16 182.96 136.7 180.5C134.24 178.04 137.43 175 141.84 170.59C146.25 166.18 150.22 162.06 152.68 164.52Z" fill="#29ABE2"/>
<path d="M121.79 174.59C124.314 174.59 126.36 172.544 126.36 170.02C126.36 167.496 124.314 165.45 121.79 165.45C119.266 165.45 117.22 167.496 117.22 170.02C117.22 172.544 119.266 174.59 121.79 174.59Z" fill="white"/>
<path d="M120.02 150.81C124.05 146.78 128.03 143.76 134.65 143.76C154.46 143.76 157.29 162.11 157.29 162.88C157.29 149.81 147.37 139.21 135.13 139.21C128.63 139.21 122.03 140.74 117 145.78C111.96 150.82 106.93 160.89 96.8501 150.82C96.6401 150.48 101.89 161.9 108.94 159.89C115.93 157.89 115.99 154.85 120.02 150.82V150.81Z" fill="#1B1464"/>
<path d="M106.43 154.23C106.63 154.28 106.84 154.33 107.06 154.36C107.15 154.38 107.23 154.39 107.32 154.4C111.81 154.94 113.86 154.15 116.2 153.07C116.72 152.52 117.3 151.94 118 151.34C118.88 150.58 119.75 149.88 120.65 149.22C122.25 147.76 123.89 146.5 125.76 145.55C123.73 145.63 121.69 145.96 119.63 146.65C117.54 147.32 115.24 148.43 112.92 149.19C112.8 149.23 112.68 149.27 112.56 149.31C108.06 150.72 103.52 150.7 100.41 143.75C100.38 144.08 100.69 152.71 106.42 154.23H106.43Z" fill="#1B1464"/>
<path d="M108.93 159.87C114.69 158.22 115.75 155.86 118.21 152.82C118.4 152.59 118.59 152.36 118.8 152.11C119.16 151.69 119.56 151.25 120.01 150.8C120.55 150.26 121.1 149.72 121.65 149.22C122.03 148.88 122.42 148.53 122.8 148.21C124.05 147.17 125.34 146.28 126.76 145.55C127.98 144.94 129.3 144.45 130.75 144.14C131.94 143.89 133.23 143.75 134.64 143.75C154.46 143.75 157.29 162.11 157.29 162.86C157.29 149.79 147.37 139.19 135.13 139.19C128.63 139.19 122.03 140.72 117 145.76C116.34 146.42 115.65 147.19 114.97 147.99C114.84 148.14 114.71 148.29 114.58 148.44C114.37 148.69 114.16 148.93 113.94 149.19C113.33 149.9 112.7 150.6 112.06 151.27C110.94 152.43 109.75 153.47 108.45 154.17C108.33 154.24 108.21 154.3 108.08 154.36C105.09 155.81 101.51 155.46 96.8601 150.8C96.6501 150.46 101.9 161.88 108.95 159.87H108.93Z" fill="#1B1464"/>
<path d="M110.13 150.24C110.27 150.34 110.43 150.44 110.6 150.54C110.66 150.58 110.72 150.61 110.79 150.65C111.23 150.88 111.65 151.08 112.04 151.26C114.74 152.47 116.43 152.44 118.37 152.31C118.51 152.24 118.65 152.18 118.8 152.11C119.16 151.69 119.56 151.25 120.01 150.8C120.55 150.26 121.1 149.72 121.65 149.22C122.03 148.88 122.42 148.53 122.8 148.21C120.98 148.14 118.9 148.29 116.92 148.19C116.81 148.18 116.7 148.18 116.59 148.17C116.04 148.13 115.49 148.08 114.97 147.99C111.6 147.45 108.81 145.62 108.48 139.97C108.36 140.22 105.96 147.24 110.13 150.24Z" fill="#1B1464"/>
<path d="M200.812 217.034C201.574 211.62 199.398 206.837 195.953 206.353C192.508 205.868 189.097 209.864 188.335 215.278C187.573 220.692 189.748 225.475 193.194 225.959C196.639 226.444 200.05 222.448 200.812 217.034Z" fill="black"/>
<path d="M139.92 225.661C143.366 225.176 145.541 220.394 144.779 214.98C144.017 209.566 140.607 205.569 137.161 206.054C133.716 206.539 131.54 211.321 132.302 216.736C133.064 222.15 136.475 226.146 139.92 225.661Z" fill="black"/>
<path d="M244.51 95.9099C241.33 102.6 238.03 107.97 234.07 111.47C228.03 116.82 220.44 117.84 209.41 112.6C198.66 107.49 194.58 101.17 194.68 93.3699C194.75 87.9399 196.86 81.7899 200.16 74.8399C208.19 57.9399 238.64 39.0299 243.29 41.2399C247.94 43.4499 252.53 78.9999 244.51 95.8999V95.9099Z" fill="white"/>
<path d="M238.24 97.36C235.43 103.26 232.64 108.06 229.51 111.33C228.26 112.64 226.95 113.71 225.57 114.51C220.01 106.11 211.16 96.75 204.74 90.4C205.59 88.06 206.67 85.5799 207.92 82.9599C215.01 68.0399 238.4 49.6999 241.58 51.2199C244.76 52.7299 245.32 82.44 238.24 97.36Z" fill="#ED1E79"/>
<path d="M91.3201 95.8997C94.5001 102.59 97.8001 107.96 101.76 111.46C107.8 116.81 115.39 117.83 126.42 112.59C137.17 107.48 141.25 101.16 141.15 93.3596C141.08 87.9296 138.97 81.7796 135.67 74.8296C127.64 57.9296 97.1901 39.0196 92.5401 41.2296C87.8901 43.4396 83.3001 78.9897 91.3201 95.8897V95.8997Z" fill="white"/>
<path d="M97.58 97.3497C100.39 103.25 103.18 108.05 106.31 111.32C107.56 112.63 108.87 113.7 110.25 114.5C115.81 106.1 124.66 96.7397 131.08 90.3897C130.23 88.0497 129.15 85.5697 127.9 82.9497C120.81 68.0297 97.42 49.6897 94.24 51.2097C91.06 52.7197 90.5 82.4297 97.58 97.3497Z" fill="#ED1E79"/>
<path d="M187.34 146.48C185.86 141.58 184.37 138.99 191.36 136.88C198.34 134.77 202.01 133.55 213.59 129.24C213.87 129.14 210.4 135.51 192.35 139.74C190.45 140.18 187.25 146.2 187.34 146.48Z" fill="#1B1464"/>
<path d="M172.4 65.1498C165.3 65.0598 124.74 63.6998 135.56 96.5098C135.56 96.5098 136.96 108.58 165.22 117.63C193.48 126.68 179.27 141.73 179.27 141.73C179.27 141.73 223.03 118.38 209.17 91.7898C195.31 65.1998 179.5 65.2298 172.39 65.1498H172.4Z" fill="#F2B3DA"/>
<path d="M179.28 141.72C179.28 141.72 195.63 133.85 198.81 118.83C201.99 103.81 193.92 69.4497 174.78 66.6397C155.64 63.8297 169.04 76.0997 172.81 79.0297C178.37 83.3397 188.9 94.0998 190.81 101.05C193.42 110.58 199.53 120.35 179.27 141.71L179.28 141.72Z" fill="#FF78B5"/>
<path d="M161.53 78.7601C157.35 77.7201 151.92 78.7601 150.86 86.2301C149.79 93.7001 154.02 95.9301 158.33 97.9701C164.11 100.71 179.4 101.61 184.8 95.3102C190.69 88.4302 190.48 80.1401 186.6 74.6101C182.62 68.9401 179.4 67.4102 179.4 67.4102C179.4 67.4102 177.54 77.6901 173.27 78.7501C169 79.8201 165.8 79.8201 161.53 78.7501V78.7601Z" fill="#29ABE2"/>
<path d="M162.32 66.9799C158.66 66.0699 153.91 66.9799 152.97 73.5199C152.04 80.0599 155.58 82.3699 159.51 83.7999C169.79 87.5399 176.58 83.5599 181.01 79.1299C186.62 73.5199 186.95 67.7899 184.75 62.2999C182.88 57.6299 177.27 54.8198 177.27 54.8198C177.27 54.8198 176.34 66.0398 172.6 66.9698C168.86 67.8998 166.06 67.8998 162.32 66.9698V66.9799Z" fill="#F9438E"/>
<path d="M163.01 54.1399C160 53.3899 156.08 54.1399 155.31 59.5299C154.54 64.9199 157.46 66.8199 160.7 67.9999C169.17 71.0799 174.76 67.7999 178.41 64.1499C183.03 59.5299 182.11 54.8498 180.3 50.3298C178.49 45.8098 174 43.1299 174 43.1299C174 43.1299 174.55 53.3699 171.47 54.1399C168.39 54.9099 166.08 54.9099 163 54.1399H163.01Z" fill="#FBB03B"/>
<path d="M164.19 43.4C161.76 42.77 158.61 43.4 157.99 47.92C157.37 52.44 159.72 54.04 162.33 55.03C169.15 57.61 173.65 54.86 176.59 51.8C180.31 47.92 179.7 43.92 177.61 40.43C173.62 33.76 170.12 33.4799 174.01 36.8299C174.01 36.8299 173.49 42.76 171.01 43.4C168.53 44.05 166.67 44.05 164.19 43.4Z" fill="#FF78B5"/>
<path d="M165.45 34.2797C163.69 33.6997 161.41 34.2797 160.96 38.4097C160.51 42.5397 162.22 43.9896 164.1 44.8896C169.04 47.2496 172.77 45.9196 174.9 43.1296C177.59 39.5896 177.24 34.7897 175.8 31.4297C174.03 27.2997 172.2 26.9297 172.2 26.9297C172.2 26.9297 172.18 33.6897 170.38 34.2797C168.58 34.8697 167.24 34.8697 165.44 34.2797H165.45Z" fill="#76DCFF"/>
<path d="M166.1 25.3798C164.84 24.8598 163.2 25.3797 162.88 29.0997C162.56 32.8197 163.78 34.1397 165.13 34.9497C168.67 37.0797 171.58 35.7497 173.1 33.2197C175.03 30.0297 174.64 28.3098 174 25.1198C173.26 21.4498 168.67 20.4697 168.67 20.4697C168.67 20.4697 170.92 24.8398 169.63 25.3698C168.34 25.8998 167.38 25.8998 166.09 25.3698L166.1 25.3798Z" fill="#FFEA83"/>
<path d="M168.54 10.5698C168.54 10.5698 164.44 20.1799 164.64 23.6199C164.75 25.4199 165.63 26.2599 165.63 26.2599C165.63 26.2599 167.21 27.4499 169 26.9299C173.1 25.7499 172.18 21.0499 171.84 19.7499C171.12 16.9499 168.54 10.5798 168.54 10.5798V10.5698Z" fill="#F2B3DA"/>
<path d="M179.28 141.72C179.28 141.72 215.93 118.52 205.43 85.2798C205.43 85.2798 232.37 114.49 179.28 141.72Z" fill="#FF78B5"/>
<path d="M174.6 244.6C173.17 249.77 164.66 251.93 155.6 249.43C147.96 247.32 142.31 242 139.73 237.48C139.31 236.74 141.54 236.35 141.76 235.54C141.84 235.24 147.36 243.91 156.43 246.42C165.5 248.92 174.51 244.91 174.6 244.61V244.6Z" fill="#1A1A1A"/>
<path d="M142.6 231.64C143.91 233.47 143.52 236 141.72 237.29C139.92 238.58 137.4 238.13 136.09 236.3C136.01 236.19 139.16 237.51 140.95 236.22C142.75 234.93 142.67 231.75 142.6 231.64Z" fill="#1A1A1A"/>
<path d="M155.89 143.28C157.37 138.38 158.86 135.79 151.87 133.68C144.89 131.57 141.22 130.35 129.64 126.04C129.36 125.94 132.83 132.31 150.88 136.54C152.78 136.98 155.98 143 155.89 143.28Z" fill="#1B1464"/>
<path d="M318.62 146.82L287.75 145.42C280.56 145.09 273.87 149.12 270.79 155.62L257.56 183.55L259.72 150.26C260.11 144.25 256.73 138.64 251.24 136.17L220.82 122.48L250.99 125.29C259.25 126.06 267.05 121.37 270.24 113.71L281.89 85.7397L280.83 116.52C280.59 123.62 284.55 130.21 290.94 133.32L318.63 146.81L318.62 146.82Z" fill="#FFEA83"/>
<path d="M155.41 21.7397L139.66 28.7898C135.99 30.4298 133.66 34.1198 133.76 38.1298L134.17 55.3798L126.9 38.2297C125.59 35.1397 122.49 33.1797 119.13 33.3297L100.52 34.1298L116.27 27.9597C120.58 26.2697 123.3 21.9697 122.97 17.3497L121.77 0.469727L128.97 16.0897C130.63 19.6997 134.26 21.9897 138.23 21.9397L155.43 21.7197L155.41 21.7397Z" fill="white"/>
</svg>
